<?xml version="1.0" encoding="UTF-8"?>
<svg xmlns="http://www.w3.org/2000/svg" xmlns:xlink="http://www.w3.org/1999/xlink" width="810pt" height="809.999993pt" viewBox="0 0 810 809.999993" version="1.2">
<g id="surface1">
<path style=" stroke:none;fill-rule:nonzero;fill:rgb(97.24884%,96.859741%,95.689392%);fill-opacity:1;" d="M 318.796875 405.835938 C 324.535156 393.878906 323.90625 378.300781 317.019531 361.96875 C 304.851562 333.097656 283.898438 316.609375 266.066406 321.863281 C 248.265625 327.109375 241 351.441406 247.988281 382.410156 C 251.761719 399.148438 260.441406 412.191406 272.425781 419.148438 C 278.171875 422.484375 284.316406 424.191406 290.339844 424.191406 C 293.300781 424.191406 296.238281 423.777344 299.078125 422.9375 C 307.722656 420.394531 314.726562 414.316406 318.796875 405.835938 "/>
<path style=" stroke:none;fill-rule:nonzero;fill:rgb(97.24884%,96.859741%,95.689392%);fill-opacity:1;" d="M 329.546875 332.921875 C 336.671875 339.40625 345.28125 342.882812 354.054688 342.882812 C 354.984375 342.882812 355.910156 342.84375 356.839844 342.765625 C 366.609375 341.945312 375.472656 337.011719 381.796875 328.878906 C 390.640625 317.507812 393.679688 300.964844 390.351562 282.292969 C 384.433594 249.121094 366.28125 227.136719 346.195312 228.824219 C 326.199219 230.507812 312.71875 254.632812 312.644531 288.847656 C 312.609375 307.316406 318.609375 322.964844 329.546875 332.921875 "/>
<path style=" stroke:none;fill-rule:nonzero;fill:rgb(97.24884%,96.859741%,95.689392%);fill-opacity:1;" d="M 543.632812 321.863281 C 525.804688 316.609375 504.847656 333.097656 492.679688 361.96875 C 485.796875 378.300781 485.164062 393.878906 490.902344 405.835938 C 494.972656 414.316406 501.976562 420.394531 510.621094 422.9375 C 513.464844 423.777344 516.394531 424.191406 519.363281 424.191406 C 525.378906 424.191406 531.527344 422.484375 537.273438 419.148438 C 549.257812 412.191406 557.9375 399.144531 561.710938 382.410156 C 568.699219 351.441406 561.433594 327.109375 543.632812 321.863281 "/>
<path style=" stroke:none;fill-rule:nonzero;fill:rgb(97.24884%,96.859741%,95.689392%);fill-opacity:1;" d="M 452.859375 342.765625 C 453.789062 342.84375 454.71875 342.882812 455.644531 342.882812 C 464.417969 342.882812 473.03125 339.40625 480.152344 332.921875 C 491.089844 322.964844 497.09375 307.316406 497.054688 288.847656 C 496.980469 254.632812 483.5 230.507812 463.503906 228.824219 C 443.4375 227.140625 425.265625 249.121094 419.347656 282.292969 C 416.023438 300.964844 419.058594 317.507812 427.902344 328.878906 C 434.226562 337.011719 443.089844 341.945312 452.859375 342.765625 "/>
<path style=" stroke:none;fill-rule:nonzero;fill:rgb(97.24884%,96.859741%,95.689392%);fill-opacity:1;" d="M 480.574219 432.246094 C 456.875 414.957031 447.203125 388.5 447.105469 388.238281 L 447.0625 388.125 C 433.753906 355.773438 409.546875 354.464844 404.898438 354.558594 C 400.183594 354.484375 375.96875 355.773438 362.644531 388.160156 C 362.53125 388.445312 351.160156 416.78125 329.183594 432.21875 C 311.335938 444.757812 295.671875 468.5 305.230469 497.535156 C 305.507812 498.496094 308.589844 508.496094 317.589844 517.003906 C 333.097656 531.660156 353.523438 530.097656 367.929688 526.207031 L 368.027344 526.175781 C 368.167969 526.132812 382.152344 521.78125 394.523438 518.671875 C 401.289062 516.976562 408.433594 516.976562 415.195312 518.671875 C 427.5625 521.777344 441.554688 526.132812 441.695312 526.175781 L 441.789062 526.207031 C 448.78125 528.09375 455.019531 528.890625 460.578125 528.890625 C 475.777344 528.890625 485.863281 522.925781 492.132812 517.003906 C 501.132812 508.496094 504.210938 498.488281 504.492188 497.535156 C 516.273438 461.738281 489.167969 438.511719 480.574219 432.246094 "/>
</g>
</svg>
