<?xml version="1.0" encoding="UTF-8"?>
<svg xmlns="http://www.w3.org/2000/svg" xmlns:xlink="http://www.w3.org/1999/xlink" width="810pt" height="809.999993pt" viewBox="0 0 810 809.999993" version="1.2">
<defs>
<clipPath id="clip1">
  <path d="M 231.769531 231.769531 L 578.269531 231.769531 L 578.269531 578.269531 L 231.769531 578.269531 Z M 231.769531 231.769531 "/>
</clipPath>
</defs>
<g id="surface1">
<path style=" stroke:none;fill-rule:nonzero;fill:rgb(97.24884%,96.859741%,95.689392%);fill-opacity:1;" d="M 401.050781 350.109375 L 401.265625 350.386719 L 401.417969 350.109375 L 401.757812 349.832031 L 402.21875 349.925781 L 402.25 350.203125 L 402.097656 350.664062 L 402.15625 350.96875 L 402.21875 351.339844 L 402.128906 351.800781 L 402.21875 352.230469 L 402.464844 352.199219 L 402.925781 352.140625 L 403.296875 352.078125 L 403.789062 351.984375 L 404.3125 351.832031 L 404.34375 352.046875 L 404.3125 352.261719 L 404.21875 352.753906 L 404.34375 353.03125 L 404.679688 352.910156 L 405.234375 352.96875 L 405.265625 353.277344 L 405.234375 353.648438 L 405.296875 354.015625 L 405.050781 354.261719 L 404.648438 354.691406 L 404.371094 354.722656 L 403.820312 354.601562 L 403.542969 354.570312 L 403.234375 354.601562 L 403.449219 355.183594 L 403.542969 355.617188 L 403.511719 355.832031 L 403.234375 356.109375 L 403.417969 356.324219 L 403.726562 356.261719 L 403.972656 356.601562 L 403.851562 356.847656 L 403.605469 357.03125 L 403.265625 357.367188 L 402.804688 357.675781 L 402.773438 357.890625 L 402.804688 358.261719 L 403.019531 358.628906 L 403.328125 358.722656 L 403.359375 358.414062 L 403.789062 358.199219 L 404.15625 358.660156 L 404.527344 358.597656 L 404.863281 358.476562 L 405.140625 358.351562 L 405.480469 358.230469 L 406.003906 358.167969 L 406.066406 358.507812 L 405.878906 358.785156 L 405.386719 358.875 L 405.082031 358.90625 L 404.648438 359.03125 L 404.34375 359.089844 L 404.066406 359.152344 L 403.757812 359.460938 L 403.574219 359.800781 L 403.417969 360.136719 L 403.296875 360.507812 L 403.203125 360.753906 L 402.925781 361.03125 L 402.679688 361.183594 L 402.648438 361.644531 L 402.804688 361.921875 L 403.417969 361.769531 L 403.542969 361.523438 L 403.695312 361.03125 L 403.851562 360.785156 L 404.15625 360.691406 L 404.558594 360.84375 L 404.773438 360.8125 L 405.082031 360.785156 L 405.417969 360.722656 L 405.480469 360.230469 L 405.695312 360.074219 L 406.3125 360.105469 L 406.679688 360.136719 L 406.988281 360.105469 L 407.234375 359.828125 L 407.570312 359.492188 L 407.757812 359.367188 L 408.0625 359.335938 L 408.433594 359.367188 L 408.679688 359.335938 L 408.863281 359.308594 L 409.511719 359.335938 L 409.910156 359.308594 L 410.21875 359.246094 L 410.496094 358.96875 L 410.832031 358.90625 L 411.171875 358.722656 L 411.355469 358.539062 L 411.386719 358.199219 L 411.234375 358.046875 L 410.863281 358.078125 L 410.523438 357.984375 L 410.554688 357.613281 L 410.585938 357.367188 L 410.585938 357 L 410.832031 356.96875 L 411.140625 356.90625 L 411.386719 356.816406 L 411.632812 356.601562 L 411.726562 356.324219 L 411.753906 356.078125 L 411.726562 355.890625 L 411.753906 355.09375 L 411.324219 354.785156 L 410.988281 354.785156 L 410.554688 354.847656 L 410.277344 355.09375 L 410.03125 355.523438 L 409.816406 355.308594 L 409.511719 355.0625 L 409.539062 354.632812 L 409.449219 354.109375 L 409.078125 353.800781 L 409.511719 353.675781 L 409.292969 353.308594 L 409.078125 353.214844 L 408.800781 353 L 408.433594 353 L 408.308594 352.722656 L 408.125 352.445312 L 407.355469 351.832031 L 406.832031 351.832031 L 406.679688 351.648438 L 406.558594 351.339844 L 406.496094 350.96875 L 406.3125 350.722656 L 405.972656 350.078125 L 405.511719 350.078125 L 405.417969 349.894531 L 405.234375 349.617188 L 404.925781 349.585938 L 404.679688 349.554688 L 404.648438 349.21875 L 404.742188 348.941406 L 404.710938 348.324219 L 404.710938 348.109375 L 404.894531 347.925781 L 405.082031 347.617188 L 405.355469 347.433594 L 405.265625 347.0625 L 405.296875 346.910156 L 405.296875 346.601562 L 405.265625 346.480469 L 405.265625 346.386719 L 405.050781 345.988281 L 404.679688 345.957031 L 404.371094 345.988281 L 404.15625 346.019531 L 403.605469 346.265625 L 403.296875 346.292969 L 402.894531 346.386719 L 402.558594 346.355469 L 402.496094 345.988281 L 402.527344 345.527344 L 402.867188 345.339844 L 402.804688 345.0625 L 403.203125 344.726562 L 403.234375 344.078125 L 403.171875 343.863281 L 402.804688 343.773438 L 402.34375 343.925781 L 401.941406 344.265625 L 401.757812 344.296875 L 401.542969 344.140625 L 401.265625 344.171875 L 401.328125 344.449219 L 401.265625 344.695312 L 401.019531 345.09375 L 400.957031 345.433594 L 401.019531 345.832031 L 400.898438 346.140625 L 400.558594 346.292969 L 400.589844 346.664062 L 400.496094 346.878906 L 400.589844 347.277344 L 400.621094 347.308594 L 400.742188 347.585938 L 400.710938 347.710938 L 400.679688 348.078125 L 400.589844 348.539062 L 400.925781 348.753906 L 400.957031 349.0625 L 401.296875 349.246094 L 401.113281 349.492188 L 400.988281 349.738281 L 401.050781 350.109375 "/>
<path style=" stroke:none;fill-rule:nonzero;fill:rgb(97.24884%,96.859741%,95.689392%);fill-opacity:1;" d="M 400.25 352.109375 L 400.160156 352.476562 L 399.667969 352.691406 L 399.726562 352.476562 L 399.789062 352.292969 L 399.789062 352.015625 L 399.511719 351.738281 L 399.113281 352.109375 L 398.742188 352.171875 L 398.464844 352.140625 L 398.21875 352.632812 L 398.191406 352.847656 L 398.28125 353.0625 L 398.34375 353.339844 L 398.035156 353.460938 L 397.789062 353.800781 L 397.699219 354.109375 L 397.328125 354.199219 L 397.050781 354.230469 L 396.773438 354.355469 L 396.804688 354.570312 L 396.835938 354.753906 L 396.898438 355.339844 L 396.34375 355.523438 L 396.40625 355.953125 L 396.46875 356.230469 L 396.652344 356.476562 L 396.867188 356.414062 L 397.144531 356.382812 L 397.421875 356.167969 L 397.667969 355.921875 L 397.914062 356.109375 L 397.726562 356.261719 L 397.699219 356.539062 L 397.726562 356.722656 L 397.636719 357.03125 L 397.511719 357.277344 L 397.234375 358.015625 L 397.019531 358.539062 L 396.558594 359 L 396.835938 359.152344 L 396.960938 359.460938 L 397.207031 359.582031 L 397.234375 359.859375 L 397.453125 359.828125 L 397.667969 359.644531 L 398.003906 359.523438 L 398.25 359.800781 L 398.589844 359.890625 L 398.988281 359.613281 L 399.234375 359.152344 L 399.449219 358.875 L 399.695312 358.816406 L 400.128906 358.753906 L 400.160156 358.507812 L 400.160156 358.078125 L 400.464844 358.046875 L 400.710938 357.769531 L 400.804688 357.246094 L 401.050781 356.90625 L 400.925781 356.660156 L 400.710938 356.261719 L 400.679688 355.832031 L 400.589844 355.523438 L 400.652344 355.246094 L 400.589844 354.9375 L 400.589844 354.570312 L 400.867188 354.230469 L 401.203125 354.015625 L 401.511719 353.769531 L 401.417969 353.554688 L 401.390625 353.339844 L 401.480469 352.9375 L 401.144531 352.601562 L 400.957031 352.445312 L 400.773438 352.230469 L 400.527344 352.046875 L 400.25 352.109375 "/>
<path style=" stroke:none;fill-rule:nonzero;fill:rgb(97.24884%,96.859741%,95.689392%);fill-opacity:1;" d="M 311.101562 424.613281 L 310.917969 424.828125 L 310.609375 425.289062 L 310.394531 425.753906 L 310.609375 426.058594 L 311.164062 425.90625 L 311.320312 425.753906 L 311.625 425.105469 L 311.964844 424.644531 L 312.519531 424.398438 L 313.101562 424.214844 L 313.59375 424.582031 L 313.808594 424.953125 L 314.085938 424.769531 L 314.425781 424.675781 L 314.824219 424.921875 L 315.164062 424.738281 L 316.023438 425.414062 L 316.242188 425.875 L 317.101562 425.722656 L 317.746094 425.691406 L 318.023438 426.089844 L 318.179688 426.613281 L 318.761719 426.707031 L 319.347656 426.828125 L 319.6875 427.199219 L 319.53125 427.875 L 319.441406 428.242188 L 319.714844 428.304688 L 320.761719 428.027344 L 321.777344 427.597656 L 322.117188 427.476562 L 322.667969 427.476562 L 323.5 427.414062 L 323.039062 426.492188 L 322.117188 426.550781 L 321.839844 426.429688 L 321.316406 425.507812 L 320.699219 425.628906 L 319.871094 425.445312 L 319.6875 425.230469 L 319.070312 424.984375 L 317.070312 424.582031 L 316.117188 424 L 315.777344 423.691406 L 314.765625 423.628906 L 313.625 423.753906 L 313.011719 423.507812 L 311.625 424.03125 L 311.101562 424.613281 "/>
<path style=" stroke:none;fill-rule:nonzero;fill:rgb(97.24884%,96.859741%,95.689392%);fill-opacity:1;" d="M 325.683594 430.058594 L 326.085938 429.964844 L 326.484375 429.90625 L 327.683594 429.9375 L 327.867188 430.242188 L 328.113281 430.058594 L 328.300781 429.691406 L 328.207031 429.136719 L 328.515625 429.257812 L 329.039062 429.382812 L 329.4375 429.257812 L 329.960938 428.890625 L 330.515625 428.734375 L 331.066406 428.644531 L 331.558594 428.488281 L 331.007812 427.78125 L 329.714844 427.691406 L 328.851562 427.257812 L 327.960938 427.042969 L 326.792969 427.289062 L 325.960938 427.628906 L 325.839844 428.734375 L 326.332031 428.980469 L 326.421875 429.472656 L 326.023438 429.597656 L 325.777344 429.660156 L 324.914062 429.660156 L 324.453125 429.414062 L 323.714844 429.382812 L 323.808594 429.996094 L 324.269531 430.242188 L 324.976562 430.152344 L 325.652344 430.058594 L 325.683594 430.058594 "/>
<path style=" stroke:none;fill-rule:nonzero;fill:rgb(97.24884%,96.859741%,95.689392%);fill-opacity:1;" d="M 320.332031 431.660156 L 320.640625 431.382812 L 321.132812 431.074219 L 321.316406 430.765625 L 321.070312 430.429688 L 320.792969 430.121094 L 318.855469 430.273438 L 318.609375 430.890625 L 319.285156 431.074219 L 319.6875 431.226562 L 319.992188 431.414062 L 320.332031 431.660156 "/>
<path style=" stroke:none;fill-rule:nonzero;fill:rgb(97.24884%,96.859741%,95.689392%);fill-opacity:1;" d="M 458.789062 361.214844 L 459.28125 361.523438 L 459.46875 361.707031 L 459.003906 362.289062 L 459.128906 362.597656 L 458.542969 362.753906 L 457.898438 363 L 457.28125 363.152344 L 456.328125 363.304688 L 455.960938 363.152344 L 455.558594 362.9375 L 455.5 362.566406 L 455.097656 362.445312 L 454.792969 362.320312 L 454.605469 362.015625 L 454.175781 361.796875 L 455.40625 361.675781 L 455.777344 361.675781 L 456.207031 361.367188 L 456.542969 360.8125 L 457.097656 360.566406 L 458.082031 360.292969 L 458.359375 359.953125 L 458.851562 359.644531 L 459.066406 359.492188 L 459.40625 359.308594 L 459.4375 359.308594 L 459.898438 359.152344 L 460.359375 359.089844 L 460.699219 359.0625 L 460.757812 359.398438 L 460.359375 359.644531 L 460.082031 360.105469 L 459.804688 360.320312 L 459.589844 360.445312 L 459.496094 360.753906 L 459.46875 360.753906 L 459.222656 360.785156 L 458.730469 360.90625 Z M 449.746094 372.535156 L 449.46875 372.996094 L 449.101562 372.933594 L 448.699219 372.8125 L 448.421875 372.964844 L 447.777344 373.425781 L 447.378906 373.488281 L 447.625 372.996094 L 448.578125 372.472656 L 448.730469 372.289062 L 448.945312 372.105469 L 449.101562 371.582031 L 448.730469 371.519531 L 448.300781 371.457031 L 447.929688 371.242188 L 447.59375 370.78125 L 447.164062 370.074219 L 447.5 369.273438 L 447.746094 368.472656 L 447.871094 368.226562 L 448.300781 367.828125 L 448.363281 367.765625 L 448.269531 367.398438 L 448.085938 366.472656 L 448.332031 366.074219 L 448.421875 365.828125 L 448.945312 365.613281 L 448.761719 364.84375 L 448.421875 364.382812 L 448.730469 363.953125 L 449.652344 362.9375 L 449.898438 362.566406 L 450.117188 361.890625 L 450.945312 361.769531 L 451.101562 361.707031 L 451.347656 361.859375 L 451.40625 362.015625 L 451.683594 362.289062 L 452.605469 362.445312 L 453.34375 362.351562 L 453.960938 362.042969 L 454.023438 362.597656 L 453.777344 362.8125 L 453.070312 363.121094 L 452.914062 363.492188 L 452.730469 363.921875 L 453.128906 363.953125 L 453.992188 363.953125 L 454.175781 364.289062 L 454.175781 364.78125 L 454.054688 365.089844 L 454.328125 365.273438 L 454.820312 365.273438 L 455.40625 364.875 L 456.820312 364.167969 L 457.097656 364.011719 L 457.558594 363.953125 L 457.773438 363.492188 L 458.730469 363.183594 L 458.945312 363.429688 L 459.128906 363.921875 L 459.589844 364.074219 L 459.960938 364.257812 L 460.667969 364.691406 L 460.914062 364.875 L 461.25 365.152344 L 461.652344 365.519531 L 462.113281 365.859375 L 462.480469 365.953125 L 463.375 366.289062 L 464.050781 366.414062 L 464.417969 366.71875 L 464.757812 367.121094 L 464.882812 367.304688 L 464.941406 367.519531 L 464.972656 367.550781 L 465.003906 367.796875 L 464.941406 368.226562 L 464.726562 368.90625 L 464.296875 369.398438 L 464.019531 369.613281 L 463.464844 370.011719 L 463.128906 370.136719 L 462.726562 369.949219 L 462.511719 369.796875 L 462.511719 369.765625 L 462.265625 369.644531 L 462.113281 369.949219 L 461.804688 370.226562 L 460.390625 370.351562 L 459.804688 370.164062 L 459.46875 370.011719 L 459.3125 369.796875 L 458.820312 369.796875 L 458.542969 370.164062 L 458.175781 369.796875 L 457.835938 369.671875 L 457.46875 369.613281 L 456.976562 369.613281 L 456.945312 369.210938 L 456.207031 369.242188 L 454.238281 369.367188 L 453.929688 369.828125 L 453.222656 370.351562 L 452.945312 370.628906 L 452.359375 370.933594 L 452.175781 371.242188 L 451.960938 371.488281 L 450.945312 371.859375 L 450.730469 371.640625 L 450.117188 371.703125 L 449.683594 371.859375 Z M 405.050781 527.757812 C 347.523438 527.757812 299.289062 488.261719 285.941406 434.886719 L 286.1875 435.011719 L 286.738281 435.6875 L 287.847656 436.242188 L 288.800781 436.703125 L 289.417969 436.855469 L 290.214844 437.226562 L 291.324219 437.75 L 292.0625 437.8125 L 292.800781 437.964844 L 293.628906 438.457031 L 295.078125 438.550781 L 296.03125 438.796875 L 296.984375 438.242188 L 297.539062 437.839844 L 299.8125 437.75 L 300.246094 437.71875 L 300.429688 437.6875 L 300.953125 438.210938 L 301.566406 438.425781 L 301.996094 439.378906 L 303.042969 439.65625 L 304.027344 440.117188 L 304.457031 440.148438 L 305.90625 440.980469 L 306.703125 440.578125 L 307.441406 440.425781 L 308.796875 440.703125 L 308.949219 441.5625 L 309.65625 441.59375 L 310.363281 442.363281 L 310.796875 442.148438 L 311.011719 442.300781 L 311.289062 442.515625 L 311.320312 442.546875 L 312.117188 443.132812 L 312.179688 443.5625 L 311.78125 443.746094 L 311.59375 444.515625 L 312.210938 445.625 L 312.765625 445.53125 L 313.441406 445.839844 L 314.210938 446.300781 L 314.671875 447.285156 L 315.347656 447.53125 L 315.59375 447.59375 L 316.054688 447.777344 L 316.671875 447.59375 L 317.777344 448.421875 L 318.210938 448.515625 L 319.46875 448.023438 L 319.410156 447.59375 L 318.886719 447.101562 L 319.378906 446.578125 L 320.117188 446.453125 L 320.886719 446.792969 L 321.347656 446.886719 L 321.5625 447.410156 L 321.683594 448.117188 L 321.929688 448.855469 L 322.667969 448.886719 L 322.945312 449.714844 L 323.070312 450.421875 L 323.191406 451.285156 L 323.347656 452.144531 L 323.132812 452.730469 L 323.132812 453.808594 L 323.777344 454.269531 L 323.039062 455.128906 L 322.578125 455.777344 L 322.207031 456.421875 L 322.363281 457.3125 L 321.683594 458.113281 L 321.253906 458.789062 L 320.730469 459.28125 L 321.316406 460.082031 L 321.191406 460.421875 L 321.007812 461.003906 L 321.007812 461.898438 L 320.792969 462.480469 L 320.792969 463.375 L 320.917969 464.265625 L 321.164062 464.941406 L 321.65625 465.035156 L 321.871094 465.589844 L 321.53125 466.234375 L 321.007812 466.789062 L 320.699219 467.679688 L 320.976562 468.511719 L 321.222656 469.21875 L 321.902344 470.726562 L 322.730469 471.308594 L 323.5625 471.800781 L 324.207031 472.417969 L 324.609375 472.972656 L 325.40625 473.554688 L 326.390625 475.0625 L 326.484375 475.246094 L 326.667969 475.648438 L 326.824219 476.015625 L 327.46875 477.246094 L 329.097656 480.199219 L 330.328125 482.539062 L 330.789062 483.613281 L 331.714844 483.921875 L 332.542969 484.507812 L 332.976562 484.84375 L 333.222656 485 L 333.40625 485.0625 L 334.574219 485.398438 L 335.40625 485.984375 L 336.359375 486.320312 L 336.882812 486.691406 L 337.496094 487.152344 L 337.652344 487.644531 L 338.113281 489.089844 L 338.664062 490.042969 L 338.851562 491.214844 L 338.910156 492.503906 L 339.035156 494.257812 L 339.15625 494.964844 L 338.851562 496.042969 L 338.910156 496.65625 L 339.496094 498.320312 L 339.621094 499.179688 L 339.433594 499.855469 L 339.402344 499.949219 L 339.28125 500.257812 L 339.097656 500.566406 L 339.1875 501.148438 L 339.464844 501.980469 L 339.34375 504.070312 L 339.035156 504.996094 L 339.097656 505.210938 L 339.15625 505.671875 L 339.15625 505.703125 L 339.835938 506.316406 L 339.957031 507.054688 L 339.679688 508.222656 L 339.589844 508.5625 L 339.648438 508.714844 C 340.265625 509.085938 340.878906 509.453125 341.496094 509.855469 C 347.003906 513.144531 352.722656 516.007812 358.660156 518.40625 L 358.691406 518.34375 L 358.875 517.945312 L 358.9375 517.820312 L 359.492188 515.667969 L 359.214844 514.839844 L 358.570312 514.5 L 358.476562 513.699219 L 358.476562 513.636719 L 358.046875 512.960938 L 357.0625 512.222656 L 356.324219 511.175781 L 356.414062 509.976562 L 356.90625 510.347656 L 357.367188 511.421875 L 358.136719 511.640625 L 358.660156 512.132812 L 359.398438 512.160156 L 360.230469 511.886719 L 361.953125 511.640625 L 362.445312 510.777344 L 362.628906 510.410156 L 363.429688 508.960938 L 363.644531 508.53125 L 363.796875 508.285156 L 363.953125 507.363281 L 363.921875 506.195312 L 364.78125 505.023438 L 365.027344 503.886719 L 365.121094 503.488281 L 365.953125 504.777344 L 366.074219 504.996094 L 366.105469 504.902344 L 366.226562 504.441406 L 366.351562 503.917969 L 366.503906 502.871094 L 366.75 501.640625 L 367.367188 500.933594 L 367.828125 500.164062 L 367.734375 499.582031 L 367.613281 498.75 L 367.457031 497.734375 L 367.089844 496.164062 L 367.304688 495.550781 L 367.765625 494.84375 L 368.136719 494.382812 L 368.84375 493.367188 L 369.859375 492.382812 L 370.164062 492.105469 L 370.289062 492.011719 L 371.367188 491.519531 L 371.703125 490.75 L 372.503906 490.351562 L 373.980469 489.398438 L 374.996094 489.367188 L 375.210938 488.597656 L 375.179688 487.429688 L 375.609375 485.613281 L 376.289062 484.324219 L 376.78125 482.628906 L 376.6875 481.921875 L 376.839844 481.125 L 376.871094 479.371094 L 376.5625 478.230469 L 376.6875 476.722656 L 376.71875 476.476562 L 376.65625 476.324219 L 376.347656 475.0625 L 376.75 472.785156 L 377.300781 472.695312 L 377.457031 472.664062 L 377.765625 471.585938 L 377.886719 470.726562 L 378.070312 469.804688 L 378.777344 468.664062 L 379.917969 467.464844 L 380.007812 466.296875 L 380.039062 466.265625 L 380.101562 465.835938 L 380.347656 464.605469 L 379.980469 462.175781 L 379.148438 461.40625 L 378.777344 460.113281 L 377.824219 459.835938 L 376.71875 460.175781 L 375.550781 459.160156 L 374.011719 457.773438 L 372.566406 457.558594 L 372.503906 457.558594 L 372.132812 457.621094 L 371.367188 457.714844 L 369.828125 457.375 L 368.472656 457.160156 L 368.195312 458.082031 L 367.367188 457.4375 L 366.105469 456.175781 L 365.027344 455.746094 L 363.796875 455.375 L 362.199219 455.4375 L 361.460938 456.328125 L 361.246094 455.007812 L 360.597656 454.546875 L 359.644531 454.976562 L 358.816406 456.421875 L 358.9375 457.128906 L 358.324219 457.066406 L 357.644531 457.46875 L 357.523438 456.484375 L 357.707031 455.097656 L 359 454.636719 L 359.03125 453.898438 L 358.9375 453.160156 L 358.230469 452.515625 L 358.539062 451.621094 L 357.859375 451.285156 L 357.554688 449.992188 L 356.570312 448.421875 L 355.554688 447.53125 L 354.386719 446.671875 L 352.664062 446.054688 L 352.015625 445.6875 L 349.21875 446.269531 L 348.785156 446.332031 L 348.753906 446.332031 L 347.894531 445.59375 L 347.15625 445.410156 L 346.324219 445.839844 L 346.203125 444.976562 L 346.171875 444.085938 L 345.863281 443.71875 L 344.324219 443.070312 C 344.324219 443.070312 343.3125 443.5 343.125 443.101562 C 342.910156 442.671875 343.035156 442.515625 343.035156 442.515625 L 343.09375 441.933594 L 342.449219 441.59375 L 341.679688 441.226562 L 340.878906 440.792969 L 340.878906 440.394531 L 340.851562 439.996094 L 340.851562 439.75 L 340.296875 439.996094 L 339.433594 440.363281 L 338.636719 440.703125 L 338.328125 441.472656 L 337.128906 441.53125 L 336.511719 441.195312 L 335.464844 441.316406 L 334.636719 441.441406 L 333.558594 442.054688 L 333.160156 441.378906 L 332.359375 440.917969 L 331.40625 440.488281 L 330.636719 440.300781 L 330.761719 441.011719 L 330.082031 441.5625 L 329.4375 442.117188 L 329.53125 442.671875 L 329.558594 442.949219 L 329.621094 443.070312 L 330.113281 443.746094 L 330.023438 444.300781 L 329.992188 444.640625 L 329.714844 444.703125 L 329.40625 444.730469 L 328.851562 443.964844 L 328.699219 442.949219 L 328.699219 442.054688 L 328.421875 441.195312 L 328.546875 440.980469 L 328.851562 440.425781 L 329.097656 439.933594 L 328.699219 439.996094 L 328.269531 440.054688 L 328.238281 440.085938 L 327.898438 440.578125 L 327.375 441.070312 L 326.699219 441.625 L 326.144531 441.871094 L 324.792969 442.640625 L 324.453125 443.285156 L 324.300781 444.179688 L 324.578125 445.039062 L 323.5625 447.101562 L 321.59375 445.53125 L 320.578125 444.640625 L 319.46875 445.101562 L 318.703125 445.960938 L 317.746094 446.394531 L 316.488281 446.484375 L 315.378906 445.410156 L 314.765625 444.546875 L 314.085938 443.5625 L 313.59375 442.300781 L 313.59375 437.625 L 313.226562 436.886719 L 312.304688 436.519531 L 311.964844 436.363281 L 311.8125 436.363281 L 309.902344 436.394531 L 308.917969 436.703125 L 308.121094 436.949219 L 307.441406 437.164062 L 307.226562 437.226562 L 306.179688 437.132812 L 306.210938 436.917969 L 306.273438 436.582031 L 306.671875 434.394531 L 306.582031 432.949219 L 307.320312 431.933594 L 306.890625 427.289062 L 305.75 427.476562 L 304.367188 427.996094 L 303.566406 428.707031 L 303.167969 429.78125 L 303.289062 430.796875 L 302.796875 432.179688 L 301.996094 432.765625 L 301.136719 433.011719 L 300.460938 433.410156 L 300.027344 434.242188 L 299.351562 434.519531 L 298.921875 434.671875 L 298.214844 434.796875 L 298.03125 434.828125 L 298 434.734375 L 297.8125 434.304688 L 297.8125 434.273438 L 296.582031 433.75 L 293.628906 430.058594 L 293.382812 428.644531 L 293.199219 427.320312 L 292.617188 425.074219 L 292.832031 423.875 L 293.324219 423.199219 L 293.167969 422.183594 L 292.554688 420.832031 L 292.523438 419.628906 L 293.046875 418.398438 L 294.429688 417.601562 L 294.523438 416.707031 L 295.136719 415.722656 L 295.351562 415.632812 L 295.785156 415.476562 L 296.246094 415.261719 L 297.351562 414.800781 L 298.335938 414.648438 L 299.691406 414.738281 L 300.121094 415.539062 L 300.765625 415.015625 L 301.96875 415.109375 L 302.488281 414.617188 L 302.214844 413.910156 L 302.214844 412.894531 L 303.382812 412.710938 L 304.644531 412.523438 L 305.472656 412.125 L 306.425781 412.679688 L 307.289062 412.832031 L 307.351562 412.832031 L 307.71875 412.800781 L 308.210938 412.710938 L 308.734375 412.492188 L 309.441406 412.984375 L 310.148438 413.722656 L 310.550781 414.402344 L 311.257812 416.214844 L 311.378906 417.078125 L 312.085938 417.292969 L 312.179688 418.03125 L 312.949219 418.738281 L 313.59375 420 L 314.179688 419.90625 L 314.363281 419.414062 L 314.578125 418.644531 L 314.363281 417.355469 L 313.839844 415.96875 L 313.195312 414.617188 L 313.042969 413.476562 L 312.332031 412.679688 L 312.179688 411.664062 L 312.242188 410.339844 L 312.332031 408.863281 L 313.164062 407.570312 L 313.65625 406.894531 L 315.410156 404.988281 L 316.148438 404.003906 L 316.886719 403.171875 L 316.980469 402.710938 L 317.871094 401.820312 L 317.410156 400.742188 L 317.007812 400.066406 L 316.054688 399.480469 L 315.902344 398.589844 L 315.472656 397.789062 L 315.503906 397.050781 L 315.378906 396.191406 L 315.53125 395.851562 L 315.65625 395.484375 L 315.902344 394.773438 L 316.949219 394.773438 L 316.457031 395.421875 L 316.425781 395.574219 L 316.300781 395.945312 L 316.242188 396.035156 L 316.394531 397.050781 L 316.886719 397.421875 L 317.6875 397.757812 L 317.992188 396.804688 L 318.210938 396.160156 L 318.269531 395.914062 L 318.210938 395.789062 L 317.71875 395.113281 L 318.117188 394.746094 L 318.792969 394.5 L 319.164062 393.851562 L 319.222656 393.238281 L 319.253906 392.804688 L 319.253906 392.652344 L 320.300781 391.761719 L 319.410156 391.761719 L 320.148438 390.777344 L 320.699219 390.53125 L 320.917969 390.4375 L 321.347656 390.222656 L 322.085938 389.882812 L 322.792969 389.761719 L 322.855469 389.175781 L 322.609375 388.621094 L 322.609375 387.609375 L 322.453125 386.5625 L 323.191406 385.730469 L 324.054688 385.453125 L 324.824219 384.777344 L 325.59375 385.085938 L 326.113281 384.683594 L 326.332031 384.070312 L 326.175781 383.085938 L 327.316406 382.746094 L 327.992188 382.5 L 328.421875 382.164062 L 328.605469 381.671875 L 329.128906 381.148438 L 329.53125 381.976562 L 330.269531 382.007812 L 330.636719 382.410156 L 328.976562 382.960938 L 328.300781 383.515625 L 327.621094 384.191406 L 327.929688 385.023438 L 328.421875 385.394531 L 329.253906 385.855469 L 329.960938 385.730469 L 330.605469 385.054688 L 330.789062 384.285156 L 331.375 383.332031 L 332.207031 383.054688 L 332.730469 382.65625 L 333.558594 381.363281 L 332.390625 381.238281 L 331.222656 381.425781 L 330.328125 380.6875 L 329.835938 380.164062 L 329.253906 379.085938 L 328.636719 378.164062 L 327.128906 377.792969 L 327.160156 377.085938 L 327.746094 377.117188 L 328.605469 375.980469 L 328.699219 375.519531 L 328.484375 374.933594 L 327.929688 374.289062 L 326.914062 374.441406 L 325.285156 375.304688 L 324.390625 376.164062 L 323.101562 377.273438 L 322.238281 378.5625 L 322.269531 377.824219 L 322.792969 376.289062 L 323.59375 375.703125 L 324.238281 374.996094 L 324.667969 374.226562 L 325.808594 372.871094 L 328.484375 372.320312 L 329.777344 371.980469 L 330.605469 371.550781 L 331.867188 372.105469 L 333.375 371.394531 L 334.144531 370.71875 L 335.40625 369.488281 L 335.28125 368.78125 L 336.265625 368.320312 L 337.496094 367.859375 L 338.390625 366.660156 L 338.265625 365.953125 L 338.082031 364.84375 L 337.128906 364.382812 L 336.390625 364.199219 L 335.160156 364.84375 L 333.003906 366.199219 L 333.652344 365.644531 L 334.328125 364.351562 L 335.191406 364.074219 L 335.683594 363.582031 L 335.4375 362.875 L 334.945312 362.351562 L 334.328125 362.320312 L 332.296875 362.597656 L 331.714844 361.523438 L 330.761719 360.96875 L 329.34375 359.675781 L 330.269531 359.089844 L 330.175781 358.507812 L 329.3125 358.382812 L 329.222656 357.613281 L 328.484375 357.03125 L 327.992188 356.539062 L 327.160156 356.785156 L 327.5 356.015625 L 327.34375 355.152344 L 326.824219 354.601562 L 326.023438 354.324219 L 325.4375 353.371094 L 325.316406 352.417969 L 325.285156 352.230469 L 324.882812 352.261719 L 324.855469 352.261719 L 324.699219 353 L 324.667969 353.183594 L 324.667969 353.214844 L 324.117188 354.324219 L 323.4375 354.722656 L 323.070312 355.183594 L 322.421875 355.890625 L 321.625 356.167969 L 321.070312 356.382812 L 320.515625 355.585938 L 320.023438 355.339844 L 318.855469 355.429688 L 318.515625 354.109375 L 318.484375 353.371094 L 318.484375 352.96875 L 318.515625 352.078125 L 318.546875 351.492188 L 317.6875 351.617188 L 317.472656 351.214844 L 316.980469 350.695312 L 316.148438 351.246094 L 315.59375 351.339844 L 315.011719 350.386719 L 313.871094 349.894531 L 313.75 349.832031 L 313.472656 349.710938 L 312.457031 349.1875 L 311.503906 350.046875 L 309.996094 349.863281 L 308.519531 349.894531 L 307.164062 350.292969 L 307.351562 351.554688 L 307.535156 352.722656 L 307.65625 353.769531 L 308.335938 353.894531 L 308.734375 355.277344 L 308.425781 355.953125 L 307.289062 356.722656 L 307.011719 357.832031 L 307.136719 357.921875 L 307.441406 358.167969 L 308.488281 359.0625 L 309.535156 360.566406 L 310.179688 361.121094 L 310.550781 361.429688 L 310.765625 361.613281 L 310.609375 363.519531 L 310.179688 364.84375 L 309.6875 365.214844 L 309.195312 365.644531 L 308.886719 365.890625 L 307.996094 366.84375 L 308.394531 368.011719 L 308.640625 368.441406 L 308.949219 368.964844 L 308.949219 369.058594 L 309.132812 370.226562 L 309.042969 372.320312 L 308.550781 373.210938 L 308.304688 373.179688 L 307.875 373.117188 L 307.074219 373.027344 L 306.121094 372.132812 L 305.75 371.148438 L 304.921875 370.320312 L 304.734375 369.304688 L 304.550781 368.074219 L 304.335938 366.660156 L 303.136719 366.136719 L 300.460938 366.535156 L 299.042969 366.074219 L 298.613281 365.953125 L 297.414062 365.519531 L 296.429688 364.660156 L 296.089844 364.503906 L 295.691406 364.320312 L 295.078125 364.042969 L 293.785156 363.796875 L 292.492188 363.367188 L 291.324219 363.953125 L 290.402344 363.273438 L 289.816406 362.566406 C 293.722656 351.953125 299.074219 342.050781 305.597656 333.035156 L 306.027344 333.28125 L 306.027344 332.789062 L 306.398438 332.542969 L 306.828125 332.667969 L 307.472656 333.160156 L 307.71875 332.820312 L 308.058594 333.34375 L 308.179688 334.019531 L 308.917969 334.234375 L 308.640625 335.160156 L 308.886719 335.40625 L 309.257812 335.804688 L 309.597656 335.652344 L 310.058594 335.40625 L 310.394531 334.945312 L 310.917969 334.667969 L 311.011719 335.25 L 311.101562 335.929688 L 311.132812 335.929688 L 311.75 336.203125 L 312.148438 336.359375 L 312.242188 337.003906 L 312.578125 337.867188 L 312.917969 338.296875 L 312.273438 338.480469 L 312.363281 339.066406 L 312.519531 339.402344 L 312.734375 339.679688 L 312.425781 340.019531 L 312.085938 340.449219 L 311.625 341.097656 L 311.195312 341.679688 L 311.226562 342.355469 L 312.949219 343.558594 L 312.734375 344.078125 L 311.164062 344.601562 L 310.550781 344.910156 L 309.074219 344.910156 L 307.933594 345.554688 L 307.628906 345.742188 L 307.566406 345.863281 L 307.042969 347.1875 L 307.195312 347.957031 L 307.65625 348.078125 L 308.121094 348.386719 L 309.226562 348.015625 L 309.902344 347.21875 L 310.273438 347.1875 L 310.363281 347.1875 L 310.765625 347.09375 L 311.011719 347.003906 L 311.042969 346.972656 L 310.828125 346.109375 L 311.132812 346.265625 L 311.410156 346.234375 L 311.964844 346.046875 L 312.210938 346.417969 L 312.796875 346.417969 L 313.132812 346.757812 L 313.78125 347.03125 L 313.996094 347.21875 L 314.242188 347.433594 L 314.578125 347.742188 L 314.792969 347.957031 L 315.5625 347.832031 L 315.871094 348.078125 L 315.441406 348.449219 L 315.285156 348.570312 L 315.410156 348.878906 L 315.410156 348.941406 L 315.71875 348.972656 L 316.609375 348.972656 L 316.886719 348.816406 L 316.980469 348.785156 L 317.839844 348.664062 L 319.039062 348.386719 L 319.960938 348.449219 L 320.824219 348.324219 L 321.59375 348.386719 L 322.515625 348.171875 L 322.484375 347.648438 L 321.871094 347.769531 L 321.316406 347.15625 L 320.515625 347.09375 L 319.46875 346.570312 L 318.515625 346.019531 L 318.855469 345.863281 L 319.714844 345.648438 L 320.269531 345.371094 L 320.945312 345.957031 L 322.148438 345.554688 L 323.253906 345.894531 L 323.070312 345.035156 L 323.285156 344.511719 L 323.160156 343.832031 L 322.792969 343.402344 L 322.332031 343.402344 L 320.394531 342.601562 L 319.839844 341.988281 L 319.441406 341.371094 L 319.132812 341.15625 L 319.316406 339.835938 L 319.222656 339.1875 L 320.054688 338.851562 L 320.578125 339.558594 L 320.976562 339.867188 L 321.4375 340.296875 L 322.238281 340.386719 L 322.332031 340.851562 L 322.792969 340.941406 L 323.160156 341.28125 L 323.59375 341.710938 L 324.609375 341.773438 L 325.253906 341.679688 L 325.316406 341.28125 L 325.222656 340.203125 L 325.867188 339.925781 L 325.992188 339.402344 L 325.929688 338.941406 L 327.375 338.726562 L 327.34375 337.25 L 327.039062 336.789062 L 326.515625 336.390625 L 325.746094 336.480469 L 324.761719 337.160156 L 324.453125 337.128906 L 324.085938 337.160156 L 323.40625 337.28125 L 322.640625 336.144531 L 322.148438 335.3125 L 321.683594 335.589844 L 321.4375 335.898438 L 321.132812 336.359375 L 320.300781 336.695312 L 319.808594 336.050781 L 319.5625 335.773438 L 319.253906 335.40625 L 319.132812 335.28125 L 317.777344 335.003906 L 317.378906 334.667969 L 317.253906 334.019531 L 317.65625 333.929688 L 318.054688 333.40625 L 317.746094 332.757812 L 318.515625 332.636719 L 317.902344 332.265625 L 317.101562 332.296875 L 316.734375 331.746094 L 317.164062 331.375 L 317.6875 331.128906 L 317.6875 330.421875 L 316.980469 330.144531 L 316.949219 330.542969 L 316.269531 330.542969 L 315.65625 329.777344 L 314.917969 329.652344 L 314.671875 329.621094 L 314.425781 329.960938 L 314.242188 330.730469 L 314.210938 330.976562 L 314.148438 330.851562 L 313.996094 330.296875 L 313.78125 329.621094 L 313.410156 329.222656 L 312.949219 328.882812 L 312.609375 328.390625 C 312.609375 328.390625 311.902344 328.484375 311.65625 328.515625 C 311.347656 328.546875 311.472656 328.636719 311.472656 328.636719 L 310.519531 328.792969 L 310.273438 328.421875 L 309.472656 328.945312 L 309.410156 328.546875 L 309.441406 328.269531 L 309.441406 328.023438 C 313.378906 323.132812 317.65625 318.546875 322.300781 314.300781 L 323.007812 314.210938 L 324.363281 314.457031 L 325.160156 315.039062 L 325.5625 315.441406 L 325.777344 315.410156 L 326.113281 315.347656 L 326.699219 315.132812 L 327.160156 315.347656 L 327.375 315.902344 L 327.5625 316.300781 L 329.160156 316.980469 L 330.082031 317.195312 L 330.207031 317.226562 L 330.296875 317.71875 L 330.328125 317.933594 L 330.175781 318.855469 L 330.945312 318.855469 L 331.191406 319.5625 L 331.960938 320.054688 L 332.082031 320.792969 L 332.882812 321.222656 L 333.003906 321.960938 L 332.605469 322.300781 L 332.421875 323.070312 L 332.421875 323.777344 L 332.328125 324.269531 L 332.390625 324.667969 L 333.128906 324.699219 L 333.683594 324.484375 L 334.359375 324.085938 L 334.757812 324.117188 L 335.25 324.117188 L 336.421875 323.898438 L 336.605469 324.332031 L 337.1875 324.390625 L 337.957031 324.421875 L 338.417969 324.636719 L 338.203125 325.253906 L 338.296875 325.839844 L 338.695312 326.359375 L 338.605469 326.792969 L 337.898438 326.945312 L 337.40625 326.699219 L 336.605469 326.359375 L 335.28125 326.300781 L 334.144531 326.484375 L 334.082031 326.515625 L 333.496094 326.699219 L 333.4375 326.730469 L 333.496094 326.730469 L 333.898438 326.882812 L 334.511719 327.039062 L 334.851562 327.40625 L 336.050781 327.5 L 336.390625 327.898438 L 337.003906 328.082031 L 337.652344 328.328125 L 338.203125 328.207031 L 338.605469 327.992188 L 339.066406 327.960938 L 339.375 328.328125 L 339.496094 329.039062 L 339.742188 329.746094 L 339.710938 330.636719 L 339.1875 330.699219 L 339.28125 331.558594 L 339.25 332.296875 L 338.695312 332.238281 L 338.082031 332.328125 L 337.589844 332.851562 L 337.496094 333.3125 L 337.957031 333.527344 L 339.15625 333.375 L 339.710938 333.28125 L 339.957031 333.804688 L 340.171875 334.390625 L 339.464844 334.605469 L 338.726562 334.574219 L 338.113281 334.390625 L 337.433594 334.789062 L 336.789062 335.464844 L 336.914062 336.203125 L 337.464844 336.851562 L 337.097656 337.496094 L 337.25 338.328125 L 337.742188 338.574219 L 337.925781 338.972656 L 338.511719 338.882812 L 339.3125 339.34375 L 339.589844 340.328125 L 339.558594 340.910156 L 339.3125 341.402344 L 339.710938 341.957031 L 340.328125 341.28125 L 340.417969 340.820312 L 340.820312 340.574219 L 341.371094 340.511719 L 341.066406 341.28125 L 340.542969 341.679688 L 340.140625 342.019531 L 340.542969 342.695312 L 341.15625 343.035156 L 341.28125 343.585938 L 341.496094 344.019531 L 341.558594 344.019531 L 341.988281 343.925781 L 342.050781 343.925781 L 342.417969 344.449219 L 342.820312 344.757812 L 342.910156 344.816406 L 342.972656 345.15625 L 343.066406 345.554688 L 344.050781 344.847656 L 344.078125 344.816406 L 344.109375 344.816406 L 344.324219 345.339844 L 344.878906 345.988281 L 344.972656 346.726562 L 345.464844 346.910156 L 345.679688 347.496094 L 346.046875 348.015625 L 346.878906 347.617188 L 347.21875 346.972656 L 347.742188 346.570312 L 347.988281 347.15625 L 348.539062 347.800781 L 349.554688 347.617188 L 350.261719 347.648438 L 350.632812 348.046875 L 351.09375 348.261719 L 351.554688 349.246094 L 351.894531 348.910156 L 352.292969 348.539062 L 352.386719 348.078125 L 352.171875 347.679688 L 351.679688 347.15625 L 351.984375 346.511719 L 352.445312 345.585938 L 352.507812 344.972656 L 352.722656 344.511719 L 352.722656 342.726562 L 352.878906 342.480469 L 353.125 342.109375 L 353.277344 341.925781 L 353.460938 341.742188 L 353.707031 341.28125 L 353.921875 340.820312 L 353.832031 340.234375 L 353.800781 339.066406 L 353.894531 338.449219 L 354.046875 337.527344 L 354.078125 337.128906 L 354.601562 336.726562 L 354.816406 335.988281 L 356.078125 335.652344 L 356.753906 335.066406 L 357.460938 334.851562 L 357.675781 335.40625 L 358.261719 335.4375 L 358.628906 334.945312 L 358.9375 334.882812 L 359.367188 334.820312 L 359.460938 334.820312 L 360.105469 334.265625 L 360.597656 333.46875 L 360.785156 332.851562 L 361.183594 332.359375 L 361.707031 331.960938 L 362.660156 330.515625 L 363.304688 330.113281 L 363.246094 329.558594 L 363.089844 328.515625 L 363.582031 328.914062 L 364.042969 328.976562 L 364.84375 328.546875 L 365.550781 328.328125 L 365.828125 328.269531 L 366.445312 328.328125 L 367.152344 328.054688 L 367.550781 327.992188 L 368.105469 327.777344 L 368.503906 327.5625 L 368.90625 327.191406 L 369.179688 327.007812 L 369.765625 327.070312 L 370.472656 326.976562 L 370.78125 326.023438 L 371.613281 325.621094 L 371.980469 325.101562 L 372.566406 325.191406 L 372.902344 324.546875 L 373.886719 324.238281 L 374.59375 324.117188 L 374.6875 323.652344 L 375.027344 323.039062 L 375.886719 321.902344 L 374.75 322.054688 L 373.980469 322.023438 L 373.058594 321.5625 L 372.351562 321.683594 L 371.394531 322.421875 L 370.84375 322.484375 L 371.089844 321.285156 L 371.179688 320.824219 L 370.8125 320.453125 L 371.179688 319.808594 L 370.6875 319.441406 L 370.257812 319.5 L 369.367188 319.5 L 368.628906 319.625 L 367.980469 319.132812 L 368.414062 319.070312 L 368.996094 318.949219 L 369.859375 318.824219 L 370.382812 318.730469 L 370.84375 318.824219 L 371.457031 318.886719 L 371.917969 319.101562 L 372.441406 319.46875 L 373.089844 319.992188 L 373.335938 320.363281 L 373.949219 320.578125 L 374.535156 320.761719 L 375.179688 320.976562 L 375.886719 321.007812 L 376.347656 321.070312 L 376.71875 320.730469 L 376.65625 320.148438 L 376.410156 319.46875 L 375.578125 318.976562 L 375.058594 318.332031 L 373.640625 317.808594 L 372.996094 317.316406 L 372.378906 317.132812 L 371.859375 316.761719 L 371.394531 316.546875 L 370.84375 316.761719 L 370.289062 316.855469 L 369.550781 316.824219 L 369.367188 316.515625 L 369.121094 316.148438 L 369.179688 316.085938 L 369.488281 315.6875 L 369.917969 315.441406 L 370.441406 315.070312 L 371.121094 314.671875 L 371.640625 315.347656 L 372.132812 315.5625 L 372.503906 315.933594 L 372.566406 315.933594 L 373.089844 315.996094 L 373.273438 316.363281 L 373.671875 317.070312 L 374.347656 317.410156 L 374.8125 317.5 L 375.394531 317.6875 L 375.796875 317.5 L 375.457031 317.101562 L 375.085938 316.578125 L 375.734375 316.179688 L 375.363281 315.777344 L 375.273438 315.6875 L 374.441406 315.347656 L 373.796875 314.855469 L 372.78125 314.273438 L 373.828125 314.117188 L 374.410156 314.179688 L 375.273438 314.054688 L 375.765625 313.503906 L 376.472656 313.257812 L 376.808594 312.488281 L 376.257812 311.839844 L 374.871094 312.488281 L 374.871094 311.441406 L 376.011719 311.132812 L 375.917969 310.582031 L 375.796875 309.71875 L 374.933594 308.949219 L 375.488281 308.859375 L 375.980469 308.949219 L 376.59375 309.289062 L 376.933594 308.519531 L 376.839844 307.933594 L 375.765625 306.644531 L 375.085938 307.011719 L 374.347656 307.136719 L 374.75 306.644531 L 375.085938 306.027344 L 374.996094 305.566406 L 374.902344 305.320312 L 374.78125 305.011719 L 376.441406 304.980469 L 376.839844 304.980469 L 377.179688 305.226562 L 377.886719 305.105469 L 378.441406 304.765625 L 378.070312 304.273438 L 377.855469 303.9375 L 377.488281 303.414062 L 376.933594 303.628906 L 376.070312 303.75 L 375.550781 303.382812 L 376.441406 302.367188 L 375.363281 302.242188 L 373.609375 302.214844 C 373.609375 302.214844 373.609375 302.214844 373.550781 301.78125 C 373.488281 301.382812 374.132812 301.84375 374.132812 301.84375 L 375.179688 301.691406 L 375.550781 300.460938 L 376.410156 299.445312 L 376.226562 298.152344 L 378.011719 297.292969 L 377.949219 296.859375 L 376.6875 296.308594 L 375.703125 296.492188 L 374.871094 296.890625 L 374.59375 296.183594 L 375.242188 295.660156 L 376.257812 295.507812 L 376.902344 295.816406 L 378.902344 295.539062 L 379.671875 294.523438 L 380.441406 293.753906 L 380.5625 293.660156 L 381.054688 293.167969 L 381.703125 292.617188 L 382.164062 291.96875 L 383.238281 292.09375 L 384.070312 290.953125 L 383.148438 290.617188 L 381.457031 290.894531 L 380.964844 290.984375 L 380.65625 291.015625 L 379.578125 291.167969 L 377.148438 291.539062 L 376.316406 292.125 L 375.332031 292.277344 L 374.320312 292.429688 L 373.582031 292.398438 L 372.75 292.800781 L 372.011719 293.628906 L 371.550781 294.339844 L 370.597656 294.890625 L 370.441406 294.921875 L 369.949219 294.984375 L 369.304688 295.078125 L 368.78125 294.585938 L 369.457031 294.183594 L 369.980469 293.816406 L 370.382812 293.601562 L 370.75 293.109375 L 371.242188 292.429688 L 370.75 292.09375 L 369.859375 292.0625 L 368.875 292.246094 L 368.6875 293.136719 L 367.304688 293.601562 L 366.382812 293.167969 L 365.582031 292.769531 L 365.550781 292.738281 L 364.996094 292.769531 L 364.105469 292.800781 L 361.984375 293.445312 L 360.660156 293.601562 L 358.753906 294.523438 L 358.785156 294.152344 L 358.785156 293.753906 L 359.890625 293.167969 L 360.292969 293.015625 L 361.398438 292.617188 L 363.859375 292.277344 L 365.921875 291.90625 L 366.660156 291.753906 L 369.304688 291.261719 L 371.058594 291.292969 L 372.074219 291.140625 L 372.71875 290.460938 L 372.84375 289.539062 L 371.640625 289.292969 L 371.210938 289.386719 L 370.042969 289.417969 L 369.703125 289.261719 L 369.550781 289.171875 L 368.84375 289.171875 L 367.949219 289.140625 L 367.703125 288.585938 L 367.304688 288.1875 C 379.179688 284.339844 391.851562 282.25 405.019531 282.25 C 433.75 282.25 460.144531 292.125 481.0625 308.640625 L 481.183594 309.597656 L 481.585938 310.519531 L 480.9375 310.734375 L 480.355469 310.425781 L 480.078125 311.410156 L 479.492188 311.257812 L 479.125 310.765625 L 478.9375 310.210938 L 477.984375 310.519531 L 477.433594 310.582031 L 477.402344 311.289062 L 476.417969 311.042969 L 475.800781 310.855469 L 475.15625 310.917969 L 474.664062 311.410156 L 474.539062 311.8125 L 474.449219 312.332031 L 474.386719 312.425781 L 473.464844 312.550781 L 472.910156 312.640625 L 472.511719 312.578125 L 472.046875 312.519531 L 472.695312 312.117188 L 472.910156 311.6875 L 472.203125 311.65625 L 471.832031 311.164062 L 471.402344 311.074219 L 470.078125 312.242188 L 469.339844 312.886719 L 468.664062 313.042969 L 468.140625 313.378906 L 467.402344 313.902344 L 467.003906 314.117188 L 466.480469 314.300781 L 466.449219 314.363281 L 466.113281 314.640625 L 465.375 315.195312 L 465.34375 315.902344 L 465.34375 316.734375 L 464.636719 317.410156 L 464.234375 317.71875 L 463.710938 317.933594 L 463.160156 317.777344 L 462.511719 317.164062 L 462.359375 316.363281 L 462.726562 315.871094 L 463.464844 315.226562 L 463.1875 314.273438 L 462.667969 313.535156 L 461.621094 313.289062 L 459.988281 313.535156 L 459.960938 314.242188 L 460.296875 314.609375 L 460.207031 315.71875 L 460.144531 316.269531 L 460.265625 317.101562 L 460.113281 318.085938 L 459.988281 318.949219 L 459.835938 319.65625 L 458.636719 319.285156 L 458.328125 318.917969 L 457.898438 318.855469 L 457.375 319.285156 L 457.035156 319.59375 L 456.914062 319.6875 L 456.453125 320.300781 L 456.050781 321.191406 L 456.113281 321.625 L 456.636719 322.363281 L 457.097656 322.855469 L 456.453125 322.945312 L 455.683594 322.515625 L 455.066406 322.207031 L 454.238281 322.148438 L 453.621094 321.839844 L 453.097656 321.929688 L 453.070312 322.761719 L 453.191406 323.5625 L 453.652344 323.777344 L 454.328125 324.546875 L 454.175781 325.222656 L 453.375 325.5 L 452.699219 325.59375 L 451.652344 325.191406 L 451.316406 324.824219 L 450.824219 324.238281 L 450.269531 323.46875 L 449.992188 322.546875 L 449.746094 321.871094 L 449.039062 321.59375 L 448.269531 321.285156 L 447.410156 320.976562 L 446.917969 320.515625 L 446.394531 319.625 L 445.53125 318.640625 L 447.070312 319.53125 L 447.714844 319.410156 L 448.175781 319.746094 L 448.914062 319.960938 L 450.054688 320.054688 L 450.730469 320.085938 L 451.4375 320.117188 L 452.667969 320.179688 L 453.4375 320.515625 L 454.359375 320.085938 L 455.007812 319.132812 L 455.53125 318.640625 L 456.023438 318.179688 L 456.328125 317.902344 L 456.605469 317.65625 L 456.175781 316.609375 L 455.929688 315.808594 L 455.191406 315.808594 L 454.484375 315.347656 L 454.269531 315.195312 L 453.5 314.640625 L 453.128906 314.488281 L 452.578125 314.242188 L 451.898438 313.933594 L 449.871094 313.5625 L 449.316406 313.625 L 448.175781 313.378906 L 447.347656 313.378906 L 446.238281 313.5625 L 445.808594 313.316406 L 444.792969 313.101562 L 445.132812 312.609375 L 444.546875 312.117188 L 444.117188 312.210938 L 443.441406 312.304688 L 442.886719 312.394531 L 441.75 312.980469 L 441.257812 312.488281 L 441.625 312.179688 L 441.839844 311.839844 L 442.609375 311.441406 L 441.625 310.488281 L 441.226562 310.582031 L 440.917969 310.335938 L 440.332031 309.996094 L 440.242188 310.425781 L 440.332031 310.949219 L 439.6875 311.347656 L 439.195312 310.765625 L 439.625 309.964844 L 439.410156 309.597656 L 438.949219 309.378906 L 438.640625 309.71875 L 438.578125 310.425781 L 438.394531 311.132812 L 438.332031 311.566406 L 437.933594 311.75 L 437.625 311.378906 L 437.535156 310.980469 L 437.257812 310.855469 L 437.195312 311.441406 L 436.886719 312.058594 L 436.828125 312.117188 L 436.640625 312.363281 L 436.640625 312.550781 L 436.609375 312.917969 L 436.273438 313.410156 L 436.027344 312.734375 L 435.964844 312.332031 L 436.210938 311.964844 L 436.273438 311.839844 L 436.394531 311.535156 L 436.488281 311.289062 L 436.148438 310.917969 L 435.902344 310.828125 L 435.566406 310.734375 L 435.257812 310.671875 L 435.132812 310.640625 L 434.703125 310.703125 L 434.703125 311.410156 L 434.457031 311.71875 L 433.933594 311.964844 L 433.875 312.488281 L 433.503906 312.855469 L 432.980469 313.070312 L 432.582031 313.132812 L 431.660156 312.703125 L 431.195312 312.609375 L 430.949219 312.550781 L 431.226562 313.472656 L 431.042969 313.78125 L 430.582031 313.6875 L 429.996094 313.535156 L 430.273438 314.179688 L 429.84375 314.273438 L 429.320312 314.457031 L 428.859375 315.101562 L 428.429688 315.011719 L 428.121094 315.65625 L 427.597656 315.964844 L 427.257812 316.609375 L 426.953125 317.039062 L 426.921875 317.902344 L 426.644531 318.886719 L 426.058594 319.410156 L 425.566406 319.902344 L 425.230469 319.933594 L 425.042969 319.960938 L 425.289062 320.609375 L 425.507812 321.132812 L 425.476562 321.378906 L 425.445312 321.59375 L 425.074219 322.054688 L 424.644531 322.792969 L 424.246094 322.855469 L 423.875 323.222656 L 423.691406 323.929688 L 422.984375 324.761719 L 422.890625 324.882812 L 422.707031 325.621094 L 422.214844 326.085938 L 422.0625 326.824219 L 421.570312 327.160156 L 421.199219 327.375 L 420.738281 327.4375 L 420.214844 328.359375 L 420.03125 328.945312 L 419.539062 329.285156 L 419.476562 329.835938 L 420.03125 330.050781 L 420.460938 329.992188 L 420.121094 330.574219 L 419.507812 330.976562 L 418.953125 331.035156 L 418.832031 330.699219 L 418.738281 330.515625 L 418.339844 330.453125 L 417.9375 330.515625 L 417.414062 330.730469 L 417.324219 330.820312 L 417.046875 331.191406 L 417.414062 331.558594 L 417.691406 331.773438 L 416.648438 332.238281 L 416.707031 332.789062 L 416.308594 332.851562 L 415.785156 332.945312 L 415.539062 333.375 L 415.601562 333.773438 L 415.386719 333.804688 L 414.984375 334.144531 L 414.800781 334.726562 L 414.246094 334.820312 L 413.941406 335.25 L 413.292969 335.652344 L 413.078125 336.082031 L 412.738281 336.726562 L 413.140625 337.496094 L 413.261719 338.296875 L 413.664062 339.21875 L 414.03125 339.558594 L 415.078125 339.28125 L 414.953125 340.386719 L 414.214844 340.789062 L 414.15625 341.34375 L 414.214844 341.894531 L 414.769531 341.804688 L 415.046875 342.601562 L 415.140625 343.433594 L 415.910156 343.742188 L 416.617188 343.863281 L 418.246094 343.648438 L 418.863281 343.125 L 419.414062 342.203125 L 420.339844 341.773438 L 420.769531 341.1875 L 421.414062 340.941406 L 421.96875 341.402344 L 422.152344 342.082031 L 422.554688 342.726562 L 422.582031 342.941406 L 422.644531 343.339844 L 422.675781 343.527344 L 423.292969 344.542969 L 424.304688 345.09375 L 424.769531 345.308594 L 424.953125 345.679688 L 424.492188 346.292969 L 424.121094 346.632812 L 423.476562 346.878906 L 423.566406 347.554688 L 422.890625 347.648438 L 422.460938 347.585938 L 422.582031 348.417969 L 423.074219 349.03125 L 423.96875 349.03125 L 424.121094 348.601562 L 424.03125 348.015625 L 424.246094 347.433594 L 424.769531 347.21875 L 424.828125 347.617188 L 425.167969 347.988281 L 426.089844 347.710938 L 426.460938 347.371094 L 426.492188 346.664062 L 426.828125 346.078125 L 427.289062 345.710938 L 428.644531 345.371094 L 429.074219 344.480469 L 428.953125 343.804688 L 428.828125 342.847656 L 428.980469 341.988281 L 428.980469 341.15625 L 428.890625 340.605469 L 428.980469 340.171875 L 429.503906 340.082031 L 429.90625 340.019531 L 430.550781 339.679688 L 430.949219 339.464844 L 431.167969 339.035156 L 430.949219 338.636719 L 431.351562 337.742188 L 430.703125 337.003906 L 430.242188 336.511719 L 429.660156 336.480469 L 429.226562 336.234375 L 428.765625 336.050781 L 428.183594 333.222656 L 428.398438 332.757812 L 428.335938 332.238281 L 429.167969 331.40625 L 429.320312 330.542969 L 429.414062 330.453125 L 429.691406 330.238281 L 429.691406 329.40625 L 430.183594 328.882812 L 431.472656 328.421875 L 432.121094 327.929688 L 432.273438 327.160156 L 432.890625 326.667969 L 432.488281 326.023438 L 431.996094 325.40625 L 432.457031 324.792969 L 432.796875 324.332031 L 433.257812 323.714844 L 433.6875 322.792969 L 434.613281 322.640625 L 434.949219 323.039062 L 436.457031 322.792969 L 437.226562 323.222656 L 437.320312 323.898438 L 437.320312 324.730469 L 436.582031 325.40625 L 435.996094 326.207031 L 435.6875 326.945312 L 435.257812 327.5625 L 434.980469 328.574219 L 434.273438 329.375 L 434.210938 329.53125 L 434.027344 329.960938 L 433.933594 330.144531 L 434.148438 331.34375 L 434.273438 332.144531 L 434.703125 333.066406 L 434.335938 333.683594 L 434.828125 334.144531 L 435.042969 334.667969 L 435.320312 334.605469 L 435.84375 334.390625 L 436.273438 334.480469 L 436.210938 334.914062 L 435.871094 335.527344 L 436.855469 335.496094 L 437.074219 335.898438 L 438.085938 336.296875 L 438.550781 335.804688 L 438.855469 335.066406 L 439.226562 334.726562 L 439.996094 334.207031 L 440.519531 333.988281 L 441.316406 333.867188 L 441.996094 333.621094 L 442.515625 333.527344 L 443.226562 334.390625 L 443.777344 334.605469 L 444.332031 334.511719 L 444.730469 334.328125 L 445.195312 334.511719 L 444.886719 335.25 L 444.515625 335.742188 L 443.71875 335.898438 L 443.132812 335.683594 L 443.101562 336.511719 L 442.054688 336.820312 L 441.316406 336.667969 L 440.640625 336.757812 L 440.085938 336.542969 L 439.472656 337.34375 L 438.796875 337.464844 L 438.273438 337.527344 L 437.933594 337.988281 L 437.566406 338.328125 L 437.65625 338.972656 L 437.6875 339.128906 L 437.871094 339.34375 L 438.027344 339.496094 L 438.457031 339.710938 L 438.488281 341.679688 L 438.027344 342.140625 L 437.6875 342.632812 L 437.074219 342.417969 L 436.886719 342.050781 L 436.582031 341.804688 L 436.058594 341.1875 L 435.257812 341.464844 L 435.535156 342.355469 L 435.566406 343.339844 L 435.378906 344.078125 L 435.074219 344.695312 L 434.828125 345.125 L 434.886719 345.527344 L 434.917969 345.679688 L 434.980469 345.742188 L 435.289062 346.140625 L 435.378906 346.695312 L 435.289062 346.785156 L 434.765625 347.371094 L 434.582031 346.972656 L 434.179688 346.878906 L 433.964844 347.617188 L 433.902344 348.171875 L 433.78125 349.03125 L 433.164062 348.695312 L 432.796875 348.910156 L 432.488281 349.617188 L 432.121094 349 L 431.8125 348.753906 L 430.949219 348.910156 L 430.644531 349.371094 L 429.382812 350.109375 L 428.335938 350.539062 L 427.8125 350.785156 L 427.257812 350.96875 L 426.335938 351 L 425.84375 350.664062 L 424.859375 350.386719 L 424.550781 350.449219 L 424.03125 351.617188 L 423.382812 351.707031 L 423.015625 351.371094 L 422.582031 351 L 422.0625 351.09375 L 421.507812 350.632812 L 421.324219 349.832031 L 421.9375 349.464844 L 421.96875 348.878906 L 421.597656 348.386719 L 421.507812 347.710938 L 421.753906 346.695312 L 421.84375 346.265625 L 421.105469 345.800781 L 420.832031 345.035156 L 421.261719 344.265625 L 421.167969 343.648438 L 421.167969 343.585938 L 420.953125 343.28125 L 420.800781 343.066406 L 420.585938 343.371094 L 420.214844 343.863281 L 419.875 344.480469 L 419.445312 345.25 L 418.554688 345.648438 L 419.292969 345.800781 L 418.183594 346.972656 L 418.585938 347.585938 L 419.046875 348.078125 L 419.109375 348.632812 L 419.382812 349.277344 L 419.753906 349.769531 L 419.9375 350.292969 L 420.308594 351.492188 L 420.523438 352.140625 L 419.847656 353.246094 L 419.601562 353.246094 L 419.015625 353.214844 L 418.398438 353.460938 L 417.445312 353.738281 L 417.046875 353.800781 L 416.308594 353.894531 L 416.277344 354.324219 L 415.910156 354.660156 L 415.507812 355.585938 L 415.476562 356.382812 L 415.476562 357.246094 L 415.417969 357.644531 L 414.402344 357.832031 L 413.96875 357.859375 L 413.941406 357.890625 L 413.140625 358.292969 L 412.617188 358.507812 L 411.972656 359 L 411.972656 359.707031 L 411.785156 360.292969 L 411.386719 360.753906 L 410.617188 361.03125 L 410.433594 361.613281 L 409.910156 361.828125 L 409.265625 362.230469 L 408.894531 361.550781 L 408.0625 361.550781 L 407.910156 362.289062 L 408.125 362.8125 L 408.371094 363.582031 L 407.878906 363.953125 L 407.296875 363.890625 L 406.773438 363.953125 L 406.21875 364.042969 L 405.386719 364.597656 L 404.988281 364.90625 L 404.773438 365.398438 L 404.863281 366.042969 L 405.449219 366.105469 L 406.464844 366.226562 L 407.355469 366.875 L 408.527344 367.457031 L 409.695312 368.074219 L 410.15625 368.90625 L 410.339844 370.136719 L 410.371094 370.65625 L 410.402344 371.121094 L 410.464844 371.980469 L 410.679688 373.363281 L 410.125 373.886719 L 408.988281 373.609375 L 407.910156 373.765625 L 406.957031 373.488281 L 406.035156 373.582031 L 405.109375 373.765625 L 403.820312 374.410156 L 402.867188 374.257812 L 402.066406 374.042969 L 401.820312 374.410156 L 401.417969 374.933594 L 400.527344 375.242188 L 400.128906 375.765625 L 400.25 376.347656 L 400.804688 377.054688 L 401.234375 377.765625 L 401.390625 378.996094 L 401.542969 380.070312 L 401.234375 380.871094 L 401.082031 381.976562 L 401.234375 382.902344 L 401.480469 383.640625 L 401.882812 384.039062 L 402.097656 385.421875 L 402.1875 386.191406 L 403.296875 386.347656 L 404.464844 385.824219 L 404.925781 385.761719 L 405.480469 386.46875 L 406.21875 386.960938 L 406.988281 387.023438 L 407.847656 386.40625 L 408.339844 385.886719 L 409.265625 385.730469 L 410.0625 385.640625 L 410.464844 385.085938 L 410.648438 384.4375 L 411.449219 383.699219 L 412.0625 383.453125 L 412.277344 382.777344 L 412.339844 382.132812 L 413.015625 381.425781 L 413.078125 380.933594 L 412.679688 380.378906 L 412.738281 379.734375 L 413.230469 378.902344 L 413.632812 378.195312 L 413.847656 377.855469 L 414.402344 377.148438 L 415.230469 376.5625 L 416.09375 375.980469 L 416.308594 375.640625 L 416.492188 374.65625 L 416.402344 374.042969 L 415.878906 373.488281 L 416.09375 372.996094 L 416.921875 372.597656 L 416.984375 372.535156 L 418.0625 372.535156 L 419.167969 372.84375 L 419.96875 373.027344 L 420.398438 372.503906 L 420.707031 371.828125 L 421.445312 371.582031 L 422 370.875 L 422.335938 370.011719 L 423.414062 369.859375 L 424.152344 370.8125 L 424.707031 371.367188 L 425.476562 372.226562 L 425.753906 372.933594 L 426.460938 373.765625 L 427.320312 374.101562 L 428.152344 374.59375 L 429.011719 374.902344 L 429.996094 375.242188 L 431.011719 376.011719 L 431.933594 376.6875 L 432.613281 377.054688 L 432.890625 377.765625 L 433.042969 378.839844 L 432.980469 379.457031 L 432.550781 380.007812 L 432.179688 380.226562 L 431.535156 380.316406 L 430.921875 380.5625 L 430.183594 380.992188 L 429.75 380.902344 L 430.183594 381.609375 L 431.167969 381.917969 L 431.964844 382.285156 L 432.488281 382.53125 L 432.488281 381.730469 L 432.703125 380.902344 L 433.441406 380.65625 L 433.8125 380.132812 L 434.242188 379.609375 L 434.582031 378.902344 L 434.582031 377.980469 L 434.519531 377.519531 L 434.148438 377.117188 L 433.996094 376.347656 L 435.011719 375.734375 L 435.71875 376.226562 L 434.917969 375.117188 L 434.367188 374.566406 L 433.6875 374.226562 L 433.164062 373.828125 L 432.457031 373.148438 L 431.964844 373.058594 L 430.210938 372.71875 L 429.597656 371.859375 L 429.382812 371.273438 L 428.707031 370.933594 L 427.660156 370.289062 L 427.105469 369.765625 L 427.167969 369.242188 L 427.199219 368.8125 L 427.199219 368.535156 L 426.796875 367.488281 L 428.058594 366.84375 L 428.460938 368.6875 L 428.488281 368.75 L 428.613281 368.6875 L 429.042969 368.382812 L 429.71875 367.488281 L 430.613281 368.320312 L 430.644531 368.503906 L 430.703125 368.933594 L 430.734375 369.089844 L 430.949219 369.796875 L 431.996094 370.105469 L 432.980469 370.566406 L 434.210938 371.488281 L 435.964844 371.703125 L 436.734375 372.65625 L 437.074219 374.933594 L 437.320312 375.550781 L 438.085938 376.503906 L 439.316406 377.242188 L 440.085938 378.195312 L 440.734375 378.59375 L 441.6875 378.59375 L 440.855469 379.332031 L 441.132812 380.070312 L 441.902344 380.101562 L 442.949219 379.640625 L 443.746094 378.902344 L 443.746094 378.871094 L 443.839844 378.441406 L 444.085938 378.347656 L 444.425781 378.164062 L 444.179688 377.609375 L 443.902344 377.519531 L 443.441406 377.394531 L 443.378906 377.394531 L 442.609375 377.363281 L 442.179688 376.808594 L 441.964844 376.226562 L 442.023438 375.609375 L 441.75 374.871094 L 441.625 374.132812 L 442.300781 374.59375 L 442.824219 374.535156 L 443.226562 374.472656 L 443.5 373.980469 L 443.226562 373.394531 L 443.992188 373.273438 L 445.378906 373.210938 L 445.777344 373.917969 L 446.269531 374.933594 L 446.671875 375.671875 L 447.070312 376.070312 L 447.164062 376.6875 L 446.792969 377.332031 L 447.070312 378.101562 L 447.839844 378.164062 L 448.054688 379.488281 L 448.792969 379.394531 L 449.378906 379.917969 L 450.332031 380.253906 L 451.5625 380.992188 L 452.113281 380.746094 L 452.484375 380.070312 L 452.761719 379.578125 L 453.621094 379.425781 L 454.636719 379.886719 L 455.46875 380.226562 L 456.421875 380.101562 L 457.097656 379.515625 L 457.898438 378.65625 L 458.730469 378.039062 L 459.097656 379.363281 L 459.128906 379.640625 L 459.222656 380.039062 L 459.3125 380.746094 L 459.527344 382.285156 L 459.714844 383.332031 L 459.4375 384.625 L 459.4375 385.578125 L 459.34375 386.191406 L 459.003906 387.023438 L 456.730469 387.238281 L 456.144531 387.609375 L 455.5 387.390625 L 454.574219 387.546875 L 453.589844 388.160156 L 453.128906 388.375 L 452.390625 388.53125 L 451.621094 388.5 L 450.945312 388.253906 L 450.824219 389.359375 L 450.238281 389.605469 L 449.777344 389.667969 L 449.285156 389.605469 L 448.453125 389.113281 L 447.65625 389.054688 L 446.917969 389.175781 L 446.394531 388.777344 L 446.085938 388.652344 L 445.839844 388.5625 L 444.949219 388.5625 L 444.300781 388.652344 L 443.6875 388.714844 L 443.164062 388.191406 L 442.792969 387.792969 L 442.023438 387.914062 L 441.410156 388.007812 L 440.488281 388.929688 L 440.085938 389.453125 L 440.210938 390.375 L 440.332031 391.113281 L 439.933594 391.636719 L 439.5625 392.191406 L 438.640625 392.160156 L 438.148438 392.066406 L 437.472656 391.851562 L 436.671875 391.515625 L 435.65625 391.207031 L 434.519531 390.746094 L 433.65625 390.128906 L 432.398438 390.160156 L 431.289062 389.851562 L 430.183594 389.730469 L 429.566406 389.175781 L 428.828125 389.144531 L 428.273438 388.746094 L 427.96875 388.070312 L 427.78125 387.667969 L 427.597656 387.300781 L 427.996094 386.777344 L 427.78125 385.394531 L 427.074219 384.902344 L 427.351562 383.761719 L 427.9375 382.5625 L 427.042969 382.714844 L 426.429688 382.777344 L 425.660156 382.933594 L 424.644531 383.394531 L 423.691406 383.363281 L 423.046875 383.148438 L 422.859375 383.671875 L 422.089844 383.792969 L 421.414062 383.699219 L 420.308594 383.425781 L 419.414062 383.699219 L 419.355469 383.792969 L 418.953125 384.132812 L 418.460938 384.65625 L 417.109375 384.839844 L 416.15625 384.683594 L 415.539062 384.929688 L 415.171875 385.609375 L 414.492188 386.160156 L 413.476562 386.652344 L 413.230469 387.144531 L 412.1875 387.453125 L 411.449219 387.730469 L 410.894531 388.128906 L 409.511719 388.347656 L 408.925781 388.59375 L 408.308594 388.683594 L 407.511719 388.347656 L 406.832031 388.128906 L 406.09375 388.253906 L 406.25 389.300781 L 406.09375 390.253906 L 405.574219 391.113281 L 405.050781 391.820312 L 405.050781 391.851562 L 404.527344 392.375 L 403.695312 392.960938 L 402.925781 394.160156 L 402.894531 395.914062 L 403.050781 397.113281 L 403.171875 397.882812 L 403.328125 398.804688 L 402.894531 400.097656 L 401.757812 401.664062 L 401.265625 402.402344 L 400.558594 403.113281 L 400.1875 403.789062 L 399.449219 404.066406 L 398.898438 405.695312 L 397.972656 407.542969 L 397.820312 408.496094 L 397.207031 409.695312 L 396.988281 411.292969 L 395.976562 412.832031 L 396.160156 414.03125 L 396.621094 415.078125 L 396.683594 415.230469 L 396.835938 415.664062 L 396.960938 415.96875 L 396.988281 417.539062 L 397.175781 418.554688 L 397.726562 419.292969 L 397.945312 420.644531 L 397.820312 421.722656 L 397.699219 423.015625 L 397.296875 424.492188 L 397.019531 425.78125 L 397.574219 426.460938 L 397.914062 427.628906 L 398.34375 428.367188 L 398.898438 428.890625 L 399.449219 429.597656 L 400.066406 430.429688 L 400.898438 430.765625 L 401.265625 431.195312 L 402.1875 431.996094 L 402.925781 432.828125 L 403.359375 433.84375 L 403.789062 434.394531 L 404.402344 435.378906 L 404.617188 435.625 L 404.773438 435.8125 L 405.019531 436.027344 L 405.664062 436.609375 L 407.234375 437.78125 L 408.433594 438.363281 L 409.632812 439.101562 L 410.433594 439.289062 L 411.261719 439.503906 L 411.878906 439.410156 L 414.339844 438.273438 L 415.199219 437.78125 L 416.125 437.65625 L 417.324219 437.441406 L 418.09375 437.347656 L 419.445312 436.980469 L 420.492188 436.671875 L 421.324219 436.242188 L 422.277344 436.117188 L 423.199219 435.011719 L 423.90625 434.457031 L 426.058594 433.8125 L 426.121094 433.8125 L 426.519531 433.933594 L 426.796875 433.996094 L 427.9375 434.613281 L 428.214844 435.320312 L 428.398438 436.550781 L 429.414062 437.042969 L 430.921875 436.671875 L 431.75 436.210938 L 432.519531 436.089844 L 433.933594 437.101562 L 434.367188 437.839844 L 434.304688 439.71875 L 434.304688 440.332031 L 434.121094 441.285156 L 434.488281 443.59375 L 433.902344 445.101562 L 435.378906 446.578125 L 437.042969 448.175781 L 438.765625 450.421875 L 439.101562 451.59375 L 439.839844 452.421875 L 440.792969 453.5 L 441.101562 455.375 L 441.347656 456.050781 L 441.503906 456.453125 L 441.6875 456.976562 L 441.902344 458.511719 L 442.179688 459.40625 L 442.332031 460.421875 L 442.546875 461.988281 L 441.871094 463.34375 L 441.777344 464.113281 L 441.777344 465.835938 L 441.625 467.125 L 441.59375 467.25 L 441.441406 467.742188 L 441.226562 468.417969 L 441.285156 469.957031 L 441.996094 471.28125 L 442.609375 472.386719 L 443.53125 473.339844 L 444.515625 475.710938 L 445.625 476.785156 L 446.976562 479.371094 L 447.164062 480.722656 L 447.347656 481.984375 L 447.960938 483.585938 L 448.148438 484.046875 L 448.238281 484.414062 L 448.453125 485.246094 L 449.253906 486.351562 L 450.175781 487.304688 L 451.070312 488.074219 L 451.621094 489.582031 L 452.332031 490.96875 L 452.484375 491.304688 L 452.515625 491.398438 L 452.824219 492.199219 L 453.191406 492.90625 L 453.160156 494.628906 L 453.375 495.859375 L 453.746094 496.410156 L 454.761719 496.71875 L 456.113281 496.65625 L 456.207031 496.65625 L 456.789062 496.472656 L 457.3125 496.320312 L 459.773438 495.949219 L 460.421875 495.242188 L 462.113281 494.964844 L 462.726562 494.875 L 464.296875 494.011719 L 465.097656 493.304688 L 465.097656 493.273438 L 465.3125 492.90625 L 465.464844 492.597656 L 465.988281 491.921875 L 466.359375 491.214844 L 466.878906 490.660156 L 467.28125 489.984375 L 467.773438 489.273438 L 468.171875 488.597656 L 468.296875 487.492188 L 468.789062 486.785156 L 469.15625 485.953125 L 469.710938 485.398438 L 470.078125 484.722656 L 469.464844 484.015625 L 470.847656 483.675781 L 470.570312 481.832031 L 470.234375 480.632812 L 469.648438 479.953125 L 470.234375 479.554688 L 470.847656 478.816406 L 471.742188 478.386719 L 472.480469 478.140625 L 472.847656 477.585938 L 472.757812 476.96875 L 472.480469 473.003906 L 472.019531 472.109375 L 471.800781 471.679688 L 471.25 471.125 L 471.003906 470.386719 L 471.035156 469.648438 L 471.585938 469.25 L 471.773438 468.417969 L 472.203125 467.125 L 472.695312 466.417969 L 474.261719 465.558594 L 475.738281 464.664062 L 476.203125 463.679688 L 476.878906 462.019531 L 477.125 460.421875 L 476.910156 459.222656 L 476.753906 458.265625 L 476.695312 457.867188 L 476.632812 457.253906 L 476.417969 456.421875 L 476.324219 456.023438 L 476.140625 455.285156 L 475.925781 453.777344 L 475.308594 452.882812 L 474.601562 452.238281 L 474.417969 449.960938 L 474.695312 448.792969 L 474.015625 448.269531 L 473.25 447.59375 L 473.125 446.546875 L 473.742188 444.609375 L 473.496094 442.917969 L 473.800781 441.933594 L 474.292969 441.070312 L 475.371094 439.964844 L 475.800781 438.703125 L 476.785156 436.917969 L 477.1875 435.472656 L 477.832031 434.765625 L 478.96875 433.8125 L 480.167969 432.550781 L 481.398438 430.335938 L 482.414062 428.765625 L 482.90625 427.136719 L 482.90625 426.058594 L 483.308594 424.429688 L 483.890625 422.152344 L 484.539062 420.339844 L 484.660156 419.078125 L 484.9375 417.785156 L 484.785156 416.648438 L 484.722656 416.429688 L 484.722656 416.277344 L 484.507812 415.199219 L 483.523438 415.816406 L 482.660156 416.246094 L 481.800781 416.585938 L 481.339844 416.800781 L 480.539062 417.539062 L 480.230469 417.90625 L 479.894531 418.398438 L 478.570312 418.492188 L 478.171875 418.523438 L 477.433594 418.617188 L 476.601562 418.429688 L 475.15625 417.230469 L 474.078125 416.183594 L 473.988281 415.445312 L 472.847656 414.523438 L 472.355469 413.96875 L 471.679688 413.449219 L 470.941406 412.925781 L 470.417969 412.15625 L 469.585938 411.910156 L 469.558594 411.878906 L 469.15625 411.664062 L 468.664062 411.417969 L 468.265625 410.25 L 467.894531 409.324219 L 467.863281 409.234375 L 467.710938 408.925781 L 467.34375 408.28125 L 466.605469 407.570312 L 465.835938 406.648438 L 465.097656 405.941406 L 464.695312 404.527344 L 464.695312 403.265625 L 464.417969 402.679688 L 463.621094 401.574219 L 462.421875 400.710938 L 461.464844 398.558594 L 460.945312 397.851562 L 460.234375 395.882812 L 459.714844 395.082031 L 458.730469 394.191406 L 458.574219 393.175781 L 457.835938 392.46875 L 457.746094 391.636719 L 457.589844 390.835938 L 458.359375 391.761719 L 459.25 392.253906 L 460.605469 392.867188 L 461.40625 394.007812 L 461.957031 394.960938 L 463.40625 396.191406 L 464.417969 397.296875 L 465.988281 398.28125 L 466.140625 399.082031 L 466.296875 400.128906 L 466.417969 401.144531 L 466.972656 401.882812 L 467.3125 402.679688 L 468.203125 404.402344 L 468.449219 404.527344 L 468.910156 404.804688 L 470.019531 405.386719 L 471.003906 406.464844 L 471.773438 407.386719 L 472.417969 408.957031 L 472.417969 409.019531 L 472.570312 409.386719 L 472.816406 410.15625 L 473.25 411.726562 L 473.585938 412.523438 L 475.03125 413.753906 L 475.710938 414.0625 L 476.785156 414.308594 L 478.140625 413.507812 L 478.691406 413.417969 L 479.953125 413.203125 L 481.863281 412.09375 L 483.03125 411.507812 L 483.675781 410.585938 L 484.507812 410.003906 L 484.84375 409.785156 L 484.84375 409.664062 L 484.875 408.527344 L 486.414062 407.664062 L 486.90625 406.957031 L 487.121094 406.648438 L 487.429688 406.25 L 487.523438 406.15625 L 488.320312 405.265625 L 489.890625 404.617188 L 490.351562 403.726562 L 490.78125 402.21875 L 491.273438 401.511719 L 492.074219 399.941406 L 491.921875 398.929688 L 492.75 397.542969 L 492.167969 396.375 L 490.535156 395.390625 L 489.675781 395.082031 L 488.753906 394.589844 L 488.199219 393.636719 L 487.492188 393.144531 L 487.335938 392.128906 L 486.199219 393.667969 L 486.136719 393.789062 L 485.890625 394.527344 L 485.828125 394.652344 L 484.078125 395.328125 L 483.308594 395.667969 L 482.476562 395.574219 L 481.863281 394.4375 L 481.492188 393.421875 L 480.847656 393.328125 L 480.414062 394.4375 L 479.648438 393.515625 L 479.09375 392.558594 L 478.199219 390.808594 L 477.402344 389.699219 L 476.632812 388.746094 L 476.109375 388.007812 L 476.140625 386.992188 L 477.554688 386.5625 L 478.96875 386.347656 L 479.921875 387.238281 L 480.230469 388.007812 L 480.539062 388.59375 L 481.339844 389.515625 L 481.832031 390.070312 L 482.722656 390.746094 L 483.460938 391.054688 L 484.507812 391.328125 L 485.398438 391.175781 L 485.828125 391.082031 L 485.921875 391.082031 L 486.90625 390.746094 L 487.738281 390.621094 L 488.566406 390.683594 L 489.335938 391.605469 L 489.859375 392.160156 L 490.660156 392.039062 L 492.8125 392.53125 L 493.921875 392.992188 L 496.105469 392.46875 L 499.335938 391.546875 L 500.347656 391.820312 L 500.8125 391.945312 L 501.242188 392.066406 L 501.273438 392.066406 L 501.578125 392.683594 L 503.300781 393.238281 L 504.503906 394.097656 L 505.394531 394.589844 L 506.410156 394.4375 L 505.242188 396.28125 L 504.71875 396.988281 L 506.132812 398.003906 L 507.578125 398.191406 L 508.441406 398.066406 L 508.960938 397.574219 L 508.746094 396.160156 L 508.902344 395.511719 L 509.546875 395.851562 L 509.945312 397.019531 L 510.132812 398.40625 L 510.132812 399.882812 L 510.65625 401.695312 L 511.484375 403.664062 L 511.609375 404.003906 L 511.640625 404.035156 L 512.59375 406.371094 L 513.699219 408.09375 L 513.945312 409.695312 L 514.007812 409.910156 L 514.375 411.109375 L 514.4375 411.171875 L 515.851562 412.554688 L 517.207031 414.617188 L 517.636719 416.214844 L 518.835938 417.109375 L 519.761719 416.308594 L 520.222656 415.230469 L 520.960938 414.707031 L 521.238281 415.261719 L 521.484375 416.894531 L 522.128906 418.246094 L 522.558594 419.660156 L 523.636719 419.90625 L 524.34375 419.167969 L 524.160156 417.96875 L 523.789062 416.953125 L 522.835938 416.09375 L 522.3125 415.324219 L 522.003906 414.738281 L 521.238281 413.816406 L 520.929688 411.785156 L 520.714844 410.371094 L 520.929688 409.078125 L 520.652344 407.234375 L 520.46875 406.035156 L 520.527344 404.988281 L 521.914062 403.328125 L 522.773438 402.15625 L 523.757812 401.789062 L 524.929688 399.941406 L 525.972656 398.527344 L 526.773438 396.960938 L 527.171875 396.652344 L 527.449219 396.4375 C 527.664062 399.265625 527.820312 402.128906 527.820312 405.050781 C 527.789062 472.816406 472.847656 527.757812 405.050781 527.757812 Z M 364.78125 289.078125 L 364.78125 289.015625 C 365.335938 288.832031 365.890625 288.648438 366.445312 288.460938 L 366.199219 288.679688 L 366.167969 288.707031 L 365.765625 289.015625 L 365.519531 289.078125 L 364.722656 289.171875 Z M 479.648438 368.6875 L 479.769531 368.964844 L 479.832031 369.210938 L 480.015625 369.367188 L 480.140625 369.152344 L 480.507812 369.058594 L 480.570312 369.027344 L 480.878906 368.964844 L 481.03125 369.027344 L 481.03125 369.210938 L 480.878906 369.765625 L 481.125 370.257812 L 481.339844 370.535156 L 481.492188 370.8125 L 481.707031 371.027344 L 481.832031 371.242188 L 481.863281 371.457031 L 481.707031 371.550781 L 481.644531 371.582031 L 481.554688 371.886719 L 481.738281 372.472656 L 481.769531 372.902344 L 481.863281 373.363281 L 481.832031 373.609375 L 481.890625 374.101562 L 482.015625 374.320312 L 482.015625 374.566406 L 481.921875 374.75 L 481.617188 374.8125 L 481.492188 374.65625 L 481.09375 374.566406 L 480.878906 374.625 L 480.539062 374.78125 L 480.230469 374.871094 L 480.046875 375.179688 L 479.769531 375.394531 L 479.15625 375.394531 L 478.539062 375.148438 L 478.386719 374.871094 L 478.140625 374.78125 L 477.800781 374.75 L 477.554688 374.566406 L 477.214844 374.503906 L 476.941406 374.566406 L 476.632812 374.59375 L 476.292969 374.472656 L 476.046875 374.410156 L 475.984375 374.257812 L 475.894531 374.101562 L 475.863281 373.886719 L 475.832031 373.765625 L 475.339844 373.027344 L 475.03125 372.78125 L 474.972656 372.378906 L 475.09375 372.105469 L 475.308594 371.640625 L 475.339844 371.457031 L 475.464844 370.902344 L 475.554688 370.597656 L 475.554688 370.257812 L 475.738281 370.011719 L 475.679688 369.644531 L 475.617188 369.242188 L 475.648438 368.964844 L 476.015625 368.90625 L 476.230469 368.78125 L 476.140625 368.628906 L 475.894531 368.472656 L 475.648438 368.535156 L 475.371094 368.257812 L 475.125 367.949219 L 475.0625 367.828125 L 474.753906 367.398438 L 474.664062 367.304688 L 474.417969 367.152344 L 474.015625 366.78125 L 473.742188 366.660156 L 473.523438 366.445312 L 473.464844 365.980469 L 473.125 365.765625 L 472.695312 365.304688 L 472.355469 364.011719 L 472.078125 363.796875 L 472.019531 363.335938 L 472.140625 363 L 471.863281 362.8125 L 471.554688 362.691406 L 471.28125 362.8125 L 471.09375 362.96875 L 471.003906 362.691406 L 471.003906 362.261719 L 471.035156 361.675781 L 471.1875 360.566406 L 471.21875 360.105469 L 471.308594 359.460938 L 471.617188 359.183594 L 471.800781 358.84375 L 472.019531 358.96875 L 472.417969 359.183594 L 472.878906 358.597656 L 472.632812 358.539062 L 472.539062 358.292969 L 473.003906 358.167969 L 473.1875 358.261719 L 473.523438 358.382812 L 473.710938 358.167969 L 473.742188 357.859375 L 473.894531 357.675781 L 474.695312 357.800781 L 474.878906 357.738281 L 475.15625 357.214844 L 475.15625 357.03125 L 475.308594 356.660156 L 475.464844 356.539062 L 475.800781 356.382812 L 476.171875 356.355469 L 476.324219 356.691406 L 476.664062 356.875 L 476.785156 356.96875 L 477.277344 356.96875 L 477.707031 356.90625 L 477.953125 357.214844 L 478.199219 357.398438 L 478.910156 357.554688 L 479.460938 357.644531 L 479.554688 358.136719 L 479.707031 358.539062 L 479.953125 358.875 L 480.199219 359.0625 L 480.445312 359.335938 L 480.476562 359.613281 L 480.414062 359.984375 L 480.140625 360.261719 L 479.738281 360.445312 L 479.371094 360.320312 L 479.09375 360.167969 L 478.785156 360.167969 L 478.445312 360.046875 L 478.230469 360.015625 L 478.109375 359.984375 L 477.679688 359.984375 L 477.523438 360.292969 L 477.402344 360.566406 L 476.847656 360.660156 C 476.847656 360.660156 476.847656 360.597656 476.695312 360.722656 C 476.539062 360.875 476.539062 360.875 476.539062 360.875 L 476.570312 361.550781 L 476.941406 361.796875 L 476.878906 362.042969 L 476.261719 362.074219 L 475.585938 362.230469 L 475.769531 362.691406 L 476.230469 362.875 L 476.695312 363.089844 L 476.847656 363.492188 L 477.03125 363.675781 L 477.433594 363.953125 L 477.769531 364.136719 L 478.015625 364.257812 L 478.785156 364.257812 L 479.15625 365.828125 L 479.402344 365.828125 L 479.617188 365.765625 L 479.675781 365.734375 L 479.863281 365.519531 L 479.953125 365.398438 L 480.046875 365.304688 L 480.230469 365.460938 L 480.507812 365.488281 L 480.96875 365.859375 C 480.96875 365.859375 480.96875 366.042969 481.09375 366.199219 C 481.214844 366.351562 481.460938 366.566406 481.460938 366.566406 L 482.078125 366.8125 L 481.984375 367.152344 L 481.800781 367.210938 L 481.769531 367.582031 L 481.675781 367.828125 L 481.617188 367.980469 L 481.371094 368.074219 L 481.125 368.042969 L 480.753906 367.980469 L 480.476562 367.765625 L 480.292969 367.703125 L 480.167969 367.675781 L 480.046875 367.613281 L 479.984375 367.703125 L 479.769531 368.074219 L 479.585938 368.382812 Z M 405.050781 276.648438 C 334.234375 276.648438 276.648438 334.234375 276.648438 405.019531 C 276.648438 475.800781 334.234375 533.386719 405.050781 533.386719 C 475.800781 533.386719 533.386719 475.800781 533.386719 405.019531 C 533.386719 334.234375 475.800781 276.648438 405.050781 276.648438 "/>
<path style=" stroke:none;fill-rule:nonzero;fill:rgb(97.24884%,96.859741%,95.689392%);fill-opacity:1;" d="M 330.023438 255.054688 L 327.5 250.042969 C 329.191406 249.179688 330.914062 248.347656 332.636719 247.550781 L 334.972656 252.65625 C 333.3125 253.425781 331.652344 254.226562 330.023438 255.054688 "/>
<g clip-path="url(#clip1)" clip-rule="nonzero">
<path style=" stroke:none;fill-rule:nonzero;fill:rgb(97.24884%,96.859741%,95.689392%);fill-opacity:1;" d="M 420.03125 238.011719 C 416.460938 237.707031 412.800781 237.492188 409.171875 237.398438 L 409.292969 231.800781 C 413.078125 231.890625 416.832031 232.105469 420.523438 232.445312 Z M 387.363281 238.289062 L 386.777344 232.691406 C 390.5 232.324219 394.253906 232.046875 398.035156 231.890625 L 398.25 237.492188 C 394.589844 237.644531 390.960938 237.890625 387.363281 238.289062 Z M 441.59375 241.367188 C 438.058594 240.566406 434.488281 239.890625 430.859375 239.335938 L 431.75 233.800781 C 435.472656 234.382812 439.164062 235.058594 442.824219 235.890625 Z M 365.859375 241.949219 L 364.566406 236.507812 C 368.195312 235.644531 371.886719 234.875 375.609375 234.230469 L 376.5625 239.765625 C 372.933594 240.382812 369.398438 241.121094 365.859375 241.949219 Z M 462.542969 247.488281 C 459.128906 246.226562 455.652344 245.089844 452.144531 244.074219 L 453.746094 238.691406 C 457.375 239.734375 460.914062 240.90625 464.449219 242.195312 Z M 345.035156 248.410156 L 343.035156 243.179688 C 346.511719 241.828125 350.109375 240.597656 353.675781 239.488281 L 355.339844 244.84375 C 351.863281 245.917969 348.417969 247.117188 345.035156 248.410156 Z M 482.507812 256.285156 C 479.277344 254.625 476.015625 253.023438 472.664062 251.546875 L 474.941406 246.410156 C 478.386719 247.949219 481.769531 249.578125 485.089844 251.300781 Z M 501.148438 267.636719 C 498.195312 265.546875 495.121094 263.546875 492.011719 261.667969 L 494.933594 256.871094 C 498.164062 258.839844 501.304688 260.898438 504.378906 263.023438 Z M 518.160156 281.296875 C 515.484375 278.835938 512.714844 276.464844 509.886719 274.1875 L 513.390625 269.820312 C 516.34375 272.160156 519.175781 274.621094 521.945312 277.140625 Z M 533.265625 297.015625 C 530.925781 294.246094 528.496094 291.539062 525.972656 288.925781 L 530.003906 285.015625 C 532.617188 287.722656 535.140625 290.523438 537.570312 293.414062 Z M 546.214844 314.578125 C 544.246094 311.503906 542.183594 308.519531 540.03125 305.566406 L 544.554688 302.242188 C 546.769531 305.289062 548.921875 308.367188 550.953125 311.535156 Z M 556.765625 333.621094 C 555.226562 330.328125 553.535156 327.097656 551.8125 323.929688 L 556.703125 321.191406 C 558.519531 324.484375 560.242188 327.835938 561.84375 331.222656 Z M 249.824219 341.527344 L 244.628906 339.375 C 246.074219 335.898438 247.609375 332.453125 249.242188 329.097656 L 254.285156 331.558594 C 252.6875 334.820312 251.210938 338.144531 249.824219 341.527344 Z M 564.734375 353.894531 C 563.65625 350.417969 562.394531 347.003906 561.105469 343.617188 L 566.300781 341.558594 C 567.6875 345.0625 568.949219 348.601562 570.085938 352.199219 Z M 242.90625 362.199219 L 237.460938 360.785156 C 238.445312 357.121094 239.519531 353.523438 240.691406 349.957031 L 246.042969 351.738281 C 244.875 355.183594 243.828125 358.660156 242.90625 362.199219 Z M 570.023438 375.058594 C 569.347656 371.457031 568.609375 367.890625 567.71875 364.382812 L 573.164062 363.027344 C 574.085938 366.660156 574.855469 370.351562 575.53125 374.074219 Z M 238.722656 383.609375 L 233.152344 382.902344 C 233.644531 379.148438 234.230469 375.425781 234.96875 371.765625 L 240.472656 372.84375 C 239.765625 376.378906 239.183594 379.980469 238.722656 383.609375 Z M 572.484375 396.714844 C 572.300781 393.050781 572.023438 389.453125 571.59375 385.855469 L 577.160156 385.207031 C 577.59375 388.929688 577.898438 392.652344 578.085938 396.4375 Z M 231.769531 405.386719 L 231.769531 405.019531 C 231.769531 401.359375 231.890625 397.726562 232.105469 394.128906 L 237.707031 394.5 C 237.492188 397.972656 237.367188 401.480469 237.367188 405.019531 Z M 577.714844 418.984375 L 572.148438 418.523438 C 572.425781 414.925781 572.609375 411.292969 572.671875 407.632812 L 578.269531 407.726562 C 578.207031 411.507812 578.023438 415.261719 577.714844 418.984375 Z M 233.277344 427.875 C 232.785156 424.121094 232.382812 420.367188 232.167969 416.648438 L 237.765625 416.308594 C 237.984375 419.9375 238.351562 423.566406 238.84375 427.136719 Z M 574.484375 441.285156 L 569.007812 440.117188 C 569.746094 436.582031 570.394531 432.980469 570.917969 429.382812 L 576.484375 430.183594 C 575.929688 433.902344 575.253906 437.625 574.484375 441.285156 Z M 237.644531 449.992188 C 236.691406 446.394531 235.828125 442.703125 235.089844 439.011719 L 240.597656 437.902344 C 241.304688 441.503906 242.136719 445.039062 243.089844 448.546875 Z M 568.363281 462.972656 L 563.074219 461.097656 C 564.273438 457.683594 565.378906 454.207031 566.363281 450.699219 L 571.777344 452.207031 C 570.761719 455.867188 569.625 459.4375 568.363281 462.972656 Z M 244.902344 471.308594 C 243.488281 467.863281 242.136719 464.328125 240.9375 460.789062 L 246.257812 458.976562 C 247.425781 462.421875 248.71875 465.835938 250.101562 469.1875 Z M 559.441406 483.675781 L 554.429688 481.152344 C 556.089844 477.925781 557.660156 474.632812 559.105469 471.25 L 564.242188 473.496094 C 562.765625 476.941406 561.164062 480.355469 559.441406 483.675781 Z M 254.871094 491.519531 C 252.996094 488.289062 251.210938 484.96875 249.550781 481.585938 L 254.59375 479.09375 C 256.195312 482.382812 257.917969 485.554688 259.730469 488.722656 Z M 547.90625 503.054688 L 543.261719 499.917969 C 545.324219 496.902344 547.324219 493.828125 549.167969 490.722656 L 553.96875 493.582031 C 552.058594 496.8125 550.03125 499.980469 547.90625 503.054688 Z M 267.390625 510.253906 C 265.082031 507.269531 262.898438 504.195312 260.808594 501.085938 L 265.484375 497.980469 C 267.515625 500.996094 269.636719 503.949219 271.820312 506.839844 Z M 533.941406 520.773438 L 529.789062 517.054688 C 532.21875 514.347656 534.554688 511.546875 536.800781 508.6875 L 541.199219 512.160156 C 538.863281 515.113281 536.464844 517.976562 533.941406 520.773438 Z M 282.21875 527.234375 C 279.542969 524.558594 276.988281 521.820312 274.527344 518.960938 L 278.742188 515.269531 C 281.140625 518.039062 283.601562 520.683594 286.1875 523.265625 Z M 517.820312 536.523438 L 514.160156 532.28125 C 516.929688 529.910156 519.605469 527.449219 522.222656 524.929688 L 526.128906 528.925781 C 523.453125 531.542969 520.683594 534.09375 517.820312 536.523438 Z M 299.105469 542.15625 C 296.121094 539.816406 293.230469 537.417969 290.429688 534.957031 L 294.121094 530.742188 C 296.859375 533.140625 299.660156 535.449219 302.550781 537.695312 Z M 499.796875 550.058594 L 496.75 545.382812 C 499.796875 543.386719 502.75 541.292969 505.671875 539.109375 L 509.054688 543.601562 C 506.039062 545.847656 502.964844 548 499.796875 550.058594 Z M 317.808594 554.734375 C 314.546875 552.828125 311.347656 550.859375 308.242188 548.738281 L 311.378906 544.09375 C 314.394531 546.121094 317.472656 548.0625 320.640625 549.90625 Z M 480.199219 561.164062 L 477.769531 556.121094 C 481.0625 554.519531 484.292969 552.828125 487.429688 551.042969 L 490.199219 555.9375 C 486.9375 557.78125 483.585938 559.535156 480.199219 561.164062 Z M 337.988281 564.824219 C 334.511719 563.347656 331.097656 561.78125 327.746094 560.121094 L 330.238281 555.105469 C 333.496094 556.703125 336.789062 558.242188 340.171875 559.65625 Z M 459.34375 569.59375 L 457.558594 564.273438 C 461.035156 563.132812 464.449219 561.871094 467.804688 560.519531 L 469.925781 565.71875 C 466.417969 567.101562 462.914062 568.425781 459.34375 569.59375 Z M 359.308594 572.179688 C 355.675781 571.195312 352.078125 570.054688 348.539062 568.855469 L 350.355469 563.566406 C 353.800781 564.734375 357.277344 565.808594 360.785156 566.765625 Z M 437.503906 575.222656 L 436.457031 569.71875 C 440.054688 569.039062 443.59375 568.242188 447.101562 567.347656 L 448.515625 572.761719 C 444.886719 573.714844 441.195312 574.515625 437.503906 575.222656 Z M 381.394531 576.667969 C 377.671875 576.175781 373.949219 575.53125 370.289062 574.792969 L 371.394531 569.285156 C 374.964844 569.992188 378.53125 570.640625 382.164062 571.132812 Z M 415.140625 577.960938 L 414.800781 572.363281 C 418.492188 572.179688 422.089844 571.839844 425.691406 571.410156 L 426.367188 576.976562 C 422.644531 577.40625 418.921875 577.777344 415.140625 577.960938 Z M 403.878906 578.269531 C 400.097656 578.238281 396.34375 578.085938 392.621094 577.839844 L 393.023438 572.238281 C 396.589844 572.484375 400.25 572.640625 403.910156 572.640625 L 403.878906 578.269531 "/>
</g>
<path style=" stroke:none;fill-rule:nonzero;fill:rgb(97.24884%,96.859741%,95.689392%);fill-opacity:1;" d="M 259.667969 321.410156 L 254.839844 318.578125 C 255.792969 316.949219 256.746094 315.316406 257.761719 313.71875 L 262.53125 316.671875 C 261.546875 318.238281 260.625 319.808594 259.667969 321.410156 "/>
<path style=" stroke:none;fill-rule:nonzero;fill:rgb(97.24884%,96.859741%,95.689392%);fill-opacity:1;" d="M 311.410156 256.5 C 315.195312 252.777344 320.761719 258.4375 316.886719 262.253906 L 301.167969 277.820312 L 309.6875 312.949219 L 303.875 318.703125 L 289.417969 289.632812 L 277.664062 301.257812 L 278.710938 310.273438 L 274.097656 314.824219 L 268.804688 304.582031 L 258.625 299.167969 L 263.238281 294.613281 L 272.160156 295.722656 L 283.941406 284.0625 L 255.023438 269.296875 L 260.839844 263.515625 L 295.570312 272.160156 L 311.410156 256.5 "/>
</g>
</svg>
